<?xml version="1.0" encoding="utf-8"?><svg xmlns="http://www.w3.org/2000/svg" xmlns:xlink="http://www.w3.org/1999/xlink" width="2480" height="110" preserveAspectRatio="xMidYMid" viewBox="0 0 2480 110" style="z-index:1;margin-right:-2px;display:block;background-repeat-y:initial;background-repeat-x:initial;animation-play-state:paused" ><g transform="translate(1240,55) scale(-1,-1) translate(-1240,-55)" style="transform:matrix(-1, 0, 0, -1, 2480, 110);animation-play-state:paused" ><linearGradient id="lg-0.10179551872986448" x1="0" x2="1" y1="0" y2="0" style="animation-play-state:paused" ><stop stop-color="#cc9005" offset="0" style="animation-play-state:paused" ></stop>

  
<stop stop-color="#f6eb4d" offset="1" style="animation-play-state:paused" ></stop></linearGradient>
<path d="M 0 0 L 0 109.298 Q 248 116.858 496 94.2464 T 992 74.2236 T 1488 67.9991 T 1984 64.8183 T 2480 40.4051 L 2480 0 Z" fill="url(#lg-0.10179551872986448)" opacity="0.4" style="opacity:0.4;animation-play-state:paused" ></path>
<path d="M 0 0 L 0 94.9641 Q 248 112.875 496 79.6057 T 992 76.2466 T 1488 69.5961 T 1984 55.1799 T 2480 36.0985 L 2480 0 Z" fill="url(#lg-0.10179551872986448)" opacity="0.4" style="opacity:0.4;animation-play-state:paused" ></path>
<path d="M 0 0 L 0 108.848 Q 248 110.545 496 88.9501 T 992 78.739 T 1488 62.6341 T 1984 62.9116 T 2480 56.6653 L 2480 0 Z" fill="url(#lg-0.10179551872986448)" opacity="0.4" style="opacity:0.4;animation-play-state:paused" ></path>
<path d="M 0 0 L 0 104.605 Q 248 116.503 496 92.9367 T 992 75.8241 T 1488 60.0691 T 1984 55.4163 T 2480 39.3934 L 2480 0 Z" fill="url(#lg-0.10179551872986448)" opacity="0.4" style="opacity:0.4;animation-play-state:paused" ></path>
<path d="M 0 0 L 0 103.143 Q 248 124.158 496 95.6037 T 992 77.7477 T 1488 74.63 T 1984 61.964 T 2480 53.0306 L 2480 0 Z" fill="url(#lg-0.10179551872986448)" opacity="0.4" style="opacity:0.4;animation-play-state:paused" ></path></g></svg>