<?xml version="1.0" encoding="utf-8"?><svg xmlns="http://www.w3.org/2000/svg" xmlns:xlink="http://www.w3.org/1999/xlink" width="3000" height="110" preserveAspectRatio="xMidYMid" viewBox="0 0 3000 110" style="z-index:1;margin-right:-2px;display:block;background-repeat-y:initial;background-repeat-x:initial;animation-play-state:paused" ><g transform="translate(1500,55) scale(-1,-1) translate(-1500,-55)" style="transform:matrix(-1, 0, 0, -1, 3000, 110);animation-play-state:paused" ><linearGradient id="lg-0.6082201084114711" x1="0" x2="1" y1="0" y2="0" style="animation-play-state:paused" ><stop stop-color="#e26c00" offset="0" style="animation-play-state:paused" ></stop>

  
<stop stop-color="#fed43b" offset="1" style="animation-play-state:paused" ></stop></linearGradient>
<path d="M 0 0 L 0 102.457 Q 300 141.714 600 97.0903 T 1200 86.5041 T 1800 64.462 T 2400 52.1357 T 3000 54.3326 L 3000 0 Z" fill="url(#lg-0.6082201084114711)" opacity="0.4" style="opacity:0.4;animation-play-state:paused" ></path>
<path d="M 0 0 L 0 103.247 Q 300 117.994 600 89.3172 T 1200 82.9547 T 1800 63.7079 T 2400 59.0729 T 3000 44.4882 L 3000 0 Z" fill="url(#lg-0.6082201084114711)" opacity="0.4" style="opacity:0.4;animation-play-state:paused" ></path>
<path d="M 0 0 L 0 100.276 Q 300 121.525 600 90.6129 T 1200 80.1065 T 1800 73.001 T 2400 48.6344 T 3000 41.5558 L 3000 0 Z" fill="url(#lg-0.6082201084114711)" opacity="0.4" style="opacity:0.4;animation-play-state:paused" ></path>
<path d="M 0 0 L 0 99.0103 Q 300 131.742 600 97.6487 T 1200 80.697 T 1800 59.594 T 2400 56.7677 T 3000 46.3159 L 3000 0 Z" fill="url(#lg-0.6082201084114711)" opacity="0.4" style="opacity:0.4;animation-play-state:paused" ></path>
<path d="M 0 0 L 0 99.1761 Q 300 117.556 600 83.9653 T 1200 86.8661 T 1800 70.459 T 2400 57.777 T 3000 48.0548 L 3000 0 Z" fill="url(#lg-0.6082201084114711)" opacity="0.4" style="opacity:0.4;animation-play-state:paused" ></path></g></svg>