<?xml version="1.0" encoding="utf-8"?><svg xmlns="http://www.w3.org/2000/svg" xmlns:xlink="http://www.w3.org/1999/xlink" width="100%" height="100%" preserveAspectRatio="xMidYMid" viewBox="0 0 1792 984" style="z-index:1;margin-right:-2px;display:block;background-repeat-y:initial;background-repeat-x:initial;background-color:rgb(241, 242, 243);animation-play-state:paused" ><g transform="translate(896,492) scale(1,1) translate(-896,-492)" style="transform:matrix(1, 0, 0, 1, 0, 0);animation-play-state:paused" ><linearGradient id="lg-0.6586119733063343" x1="0" x2="1" y1="0" y2="0" style="animation-play-state:paused" ><stop stop-color="#fcdd31" offset="0" style="animation-play-state:paused" ></stop>

  
<stop stop-color="#ec700b" offset="1" style="animation-play-state:paused" ></stop></linearGradient>
<path d="M 0 0 L 0 720.067 Q 179.2 575.938 358.4 538.169 T 716.8 707.635 T 1075.2 450.145 T 1433.6 769.195 T 1792 246.08 L 1792 0 Z" fill="url(#lg-0.6586119733063343)" opacity="0.4" style="opacity:0.4;animation-play-state:paused" ></path>
<path d="M 0 0 L 0 637.88 Q 179.2 796.004 358.4 758.13 T 716.8 536.142 T 1075.2 667.51 T 1433.6 330.748 T 1792 255.734 L 1792 0 Z" fill="url(#lg-0.6586119733063343)" opacity="0.4" style="opacity:0.4;animation-play-state:paused" ></path>
<path d="M 0 0 L 0 601.514 Q 179.2 767.64 358.4 723.443 T 716.8 707.216 T 1075.2 659.083 T 1433.6 534.477 T 1792 352.464 L 1792 0 Z" fill="url(#lg-0.6586119733063343)" opacity="0.4" style="opacity:0.4;animation-play-state:paused" ></path>
<path d="M 0 0 L 0 797.302 Q 179.2 853.532 358.4 829.707 T 716.8 490.928 T 1075.2 773.425 T 1433.6 669.199 T 1792 402.611 L 1792 0 Z" fill="url(#lg-0.6586119733063343)" opacity="0.4" style="opacity:0.4;animation-play-state:paused" ></path>
<path d="M 0 0 L 0 621.744 Q 179.2 781.821 358.4 748.662 T 716.8 517.605 T 1075.2 630.959 T 1433.6 343.087 T 1792 433.942 L 1792 0 Z" fill="url(#lg-0.6586119733063343)" opacity="0.4" style="opacity:0.4;animation-play-state:paused" ></path></g></svg>