<?xml version="1.0" encoding="utf-8"?><svg xmlns="http://www.w3.org/2000/svg" xmlns:xlink="http://www.w3.org/1999/xlink" width="3000" height="101" preserveAspectRatio="xMidYMid" viewBox="0 0 3000 101" style="z-index:1;margin-right:-2px;display:block;background-repeat-y:initial;background-repeat-x:initial;animation-play-state:paused" ><g transform="translate(1500,50.5) scale(1,1) translate(-1500,-50.5)" style="transform:matrix(1, 0, 0, 1, 0, 0);animation-play-state:paused" ><linearGradient id="lg-0.6573187306936574" x1="0" x2="1" y1="0" y2="0" style="animation-play-state:paused" ><stop stop-color="#ffd334" offset="0" style="animation-play-state:paused" ></stop>

  
<stop stop-color="#ed7826" offset="1" style="animation-play-state:paused" ></stop></linearGradient>
<path d="M 0 0 L 0 100.885 Q 300 101.97 600 78.3175 T 1200 78.469 T 1800 62.7504 T 2400 63.2635 T 3000 48.5581 L 3000 0 Z" fill="url(#lg-0.6573187306936574)" opacity="0.4" style="opacity:0.4;animation-play-state:paused" ></path>
<path d="M 0 0 L 0 84.9363 Q 300 123.161 600 81.5667 T 1200 72.5406 T 1800 66.6268 T 2400 51.736 T 3000 41.6778 L 3000 0 Z" fill="url(#lg-0.6573187306936574)" opacity="0.4" style="opacity:0.4;animation-play-state:paused" ></path>
<path d="M 0 0 L 0 96.6946 Q 300 109.057 600 82.0902 T 1200 70.9544 T 1800 67.9925 T 2400 55.6694 T 3000 51.9433 L 3000 0 Z" fill="url(#lg-0.6573187306936574)" opacity="0.4" style="opacity:0.4;animation-play-state:paused" ></path>
<path d="M 0 0 L 0 97.6219 Q 300 111.118 600 88.4796 T 1200 70.5229 T 1800 63.9092 T 2400 53.6905 T 3000 47.8567 L 3000 0 Z" fill="url(#lg-0.6573187306936574)" opacity="0.4" style="opacity:0.4;animation-play-state:paused" ></path>
<path d="M 0 0 L 0 89.6295 Q 300 99.0713 600 79.6227 T 1200 71.9636 T 1800 63.6153 T 2400 55.1981 T 3000 44.7009 L 3000 0 Z" fill="url(#lg-0.6573187306936574)" opacity="0.4" style="opacity:0.4;animation-play-state:paused" ></path></g></svg>