<?xml version="1.0" encoding="utf-8"?>
<!-- Generator: Adobe Illustrator 24.1.0, SVG Export Plug-In . SVG Version: 6.00 Build 0)  -->
<svg version="1.1" id="Layer_1" xmlns="http://www.w3.org/2000/svg" xmlns:xlink="http://www.w3.org/1999/xlink" x="0px" y="0px"
	 viewBox="0 0 2720 2720" style="enable-background:new 0 0 2720 2720;" xml:space="preserve">
<style type="text/css">
	.st0{fill:#FFFFFF8C;}
	.st1{fill:#B3B3B38C;}
</style>
<g>
	<g>
		<polygon class="st0" points="1904,2608 1872,2640 1792,2720 1864,2720 1904,2680 1944,2720 2016,2720 1936,2640 		"/>
		<polygon class="st0" points="1328,2720 1392,2720 1360,2688 		"/>
		<polygon class="st0" points="1872,2720 1936,2720 1904,2688 		"/>
		<polygon class="st0" points="1392,2560 1360,2528 1328,2560 1248,2640 1168,2720 1240,2720 1320,2640 1360,2600 1400,2640 
			1480,2720 1552,2720 1472,2640 		"/>
		<polygon class="st0" points="1360,2608 1328,2640 1248,2720 1320,2720 1360,2680 1400,2720 1472,2720 1392,2640 		"/>
		<polygon class="st0" points="784,2720 848,2720 816,2688 		"/>
		<polygon class="st0" points="848,2560 816,2528 784,2560 704,2640 624,2720 696,2720 776,2640 816,2600 856,2640 936,2720 
			1008,2720 928,2640 		"/>
		<polygon class="st0" points="816,2608 784,2640 704,2720 776,2720 816,2680 856,2720 928,2720 848,2640 		"/>
		<polygon class="st0" points="304,2560 272,2528 240,2560 160,2640 80,2720 152,2720 232,2640 272,2600 312,2640 392,2720 
			464,2720 384,2640 		"/>
		<polygon class="st0" points="384,2560 304,2480 272,2448 240,2480 160,2560 80,2640 0,2720 72,2720 152,2640 232,2560 272,2520 
			312,2560 392,2640 472,2720 544,2720 464,2640 		"/>
		<polygon class="st0" points="1472,2560 1392,2480 1360,2448 1328,2480 1248,2560 1168,2640 1088,2720 1160,2720 1240,2640 
			1320,2560 1360,2520 1400,2560 1480,2640 1560,2720 1632,2720 1552,2640 		"/>
		<polygon class="st0" points="1936,2560 1904,2528 1872,2560 1792,2640 1712,2720 1784,2720 1864,2640 1904,2600 1944,2640 
			2024,2720 2096,2720 2016,2640 		"/>
		<polygon class="st0" points="2016,2560 1936,2480 1904,2448 1872,2480 1792,2560 1712,2640 1632,2720 1704,2720 1784,2640 
			1864,2560 1904,2520 1944,2560 2024,2640 2104,2720 2176,2720 2096,2640 		"/>
		<polygon class="st0" points="2416,2720 2480,2720 2448,2688 		"/>
		<polygon class="st0" points="2560,2560 2480,2480 2448,2448 2416,2480 2336,2560 2256,2640 2176,2720 2248,2720 2328,2640 
			2408,2560 2448,2520 2488,2560 2568,2640 2648,2720 2720,2720 2640,2640 		"/>
		<polygon class="st0" points="2448,2608 2416,2640 2336,2720 2408,2720 2448,2680 2488,2720 2560,2720 2480,2640 		"/>
		<polygon class="st0" points="928,2560 848,2480 816,2448 784,2480 704,2560 624,2640 544,2720 616,2720 696,2640 776,2560 
			816,2520 856,2560 936,2640 1016,2720 1088,2720 1008,2640 		"/>
		<polygon class="st0" points="1560,160 1632,232 1704,160 1784,80 1864,0 1792,0 1712,80 1632,160 1552,80 1472,0 1400,0 1480,80 
					"/>
		<polygon class="st0" points="1632,152 1704,80 1784,0 1712,0 1632,80 1552,0 1480,0 1560,80 		"/>
		<polygon class="st0" points="1704,0 1560,0 1632,72 		"/>
		<polygon class="st0" points="1160,0 1016,0 1088,72 		"/>
		<polygon class="st0" points="2248,0 2104,0 2176,72 		"/>
		<polygon class="st0" points="1088,152 1160,80 1240,0 1168,0 1088,80 1008,0 936,0 1016,80 		"/>
		<polygon class="st0" points="272,2608 240,2640 160,2720 232,2720 272,2680 312,2720 384,2720 304,2640 		"/>
		<polygon class="st0" points="2104,160 2176,232 2248,160 2328,80 2408,0 2336,0 2256,80 2176,160 2096,80 2016,0 1944,0 2024,80 
					"/>
		<polygon class="st0" points="2176,152 2248,80 2328,0 2256,0 2176,80 2096,0 2024,0 2104,80 		"/>
		<polygon class="st0" points="152,0 80,0 0,80 0,152 72,80 		"/>
		<polygon class="st0" points="152,80 232,0 160,0 80,80 0,160 0,232 72,160 		"/>
		<polygon class="st0" points="240,2720 304,2720 272,2688 		"/>
		<polygon class="st0" points="0,0 0,72 72,0 		"/>
		<polygon class="st0" points="472,160 544,232 616,160 696,80 776,0 704,0 624,80 544,160 464,80 384,0 312,0 392,80 		"/>
		<polygon class="st0" points="616,0 472,0 544,72 		"/>
		<polygon class="st0" points="544,152 616,80 696,0 624,0 544,80 464,0 392,0 472,80 		"/>
		<polygon class="st0" points="1016,160 1088,232 1160,160 1240,80 1320,0 1248,0 1168,80 1088,160 1008,80 928,0 856,0 936,80 		
			"/>
		<polygon class="st0" points="2480,2560 2448,2528 2416,2560 2336,2640 2256,2720 2328,2720 2408,2640 2448,2600 2488,2640 
			2568,2720 2640,2720 2560,2640 		"/>
		<polygon class="st0" points="2560,800 2480,720 2448,688 2416,720 2336,800 2256,880 2176,960 2096,880 2016,800 1936,720 
			1904,688 1872,720 1792,800 1712,880 1632,960 1552,880 1472,800 1392,720 1360,688 1328,720 1248,800 1168,880 1088,960 
			1008,880 928,800 848,720 816,688 784,720 704,800 624,880 544,960 464,880 384,800 304,720 272,688 240,720 160,800 80,880 
			0,960 0,1032 72,960 152,880 232,800 272,760 312,800 392,880 472,960 544,1032 616,960 696,880 776,800 816,760 856,800 936,880 
			1016,960 1088,1032 1160,960 1240,880 1320,800 1360,760 1400,800 1480,880 1560,960 1632,1032 1704,960 1784,880 1864,800 
			1904,760 1944,800 2024,880 2104,960 2176,1032 2248,960 2328,880 2408,800 2448,760 2488,800 2568,880 2648,960 2720,1032 
			2720,960 2640,880 		"/>
		<polygon class="st0" points="2560,480 2480,400 2448,368 2416,400 2336,480 2256,560 2176,640 2096,560 2016,480 1936,400 
			1904,368 1872,400 1792,480 1712,560 1632,640 1552,560 1472,480 1392,400 1360,368 1328,400 1248,480 1168,560 1088,640 
			1008,560 928,480 848,400 816,368 784,400 704,480 624,560 544,640 464,560 384,480 304,400 272,368 240,400 160,480 80,560 
			0,640 0,712 72,640 152,560 232,480 272,440 312,480 392,560 472,640 544,712 616,640 696,560 776,480 816,440 856,480 936,560 
			1016,640 1088,712 1160,640 1240,560 1320,480 1360,440 1400,480 1480,560 1560,640 1632,712 1704,640 1784,560 1864,480 
			1904,440 1944,480 2024,560 2104,640 2176,712 2248,640 2328,560 2408,480 2448,440 2488,480 2568,560 2648,640 2720,712 
			2720,640 2640,560 		"/>
		<polygon class="st0" points="2560,720 2480,640 2448,608 2416,640 2336,720 2256,800 2176,880 2096,800 2016,720 1936,640 
			1904,608 1872,640 1792,720 1712,800 1632,880 1552,800 1472,720 1392,640 1360,608 1328,640 1248,720 1168,800 1088,880 
			1008,800 928,720 848,640 816,608 784,640 704,720 624,800 544,880 464,800 384,720 304,640 272,608 240,640 160,720 80,800 
			0,880 0,952 72,880 152,800 232,720 272,680 312,720 392,800 472,880 544,952 616,880 696,800 776,720 816,680 856,720 936,800 
			1016,880 1088,952 1160,880 1240,800 1320,720 1360,680 1400,720 1480,800 1560,880 1632,952 1704,880 1784,800 1864,720 
			1904,680 1944,720 2024,800 2104,880 2176,952 2248,880 2328,800 2408,720 2448,680 2488,720 2568,800 2648,880 2720,952 
			2720,880 2640,800 		"/>
		<polygon class="st0" points="2560,560 2480,480 2448,448 2416,480 2336,560 2256,640 2176,720 2096,640 2016,560 1936,480 
			1904,448 1872,480 1792,560 1712,640 1632,720 1552,640 1472,560 1392,480 1360,448 1328,480 1248,560 1168,640 1088,720 
			1008,640 928,560 848,480 816,448 784,480 704,560 624,640 544,720 464,640 384,560 304,480 272,448 240,480 160,560 80,640 
			0,720 0,792 72,720 152,640 232,560 272,520 312,560 392,640 472,720 544,792 616,720 696,640 776,560 816,520 856,560 936,640 
			1016,720 1088,792 1160,720 1240,640 1320,560 1360,520 1400,560 1480,640 1560,720 1632,792 1704,720 1784,640 1864,560 
			1904,520 1944,560 2024,640 2104,720 2176,792 2248,720 2328,640 2408,560 2448,520 2488,560 2568,640 2648,720 2720,792 
			2720,720 2640,640 		"/>
		<polygon class="st0" points="2560,640 2480,560 2448,528 2416,560 2336,640 2256,720 2176,800 2096,720 2016,640 1936,560 
			1904,528 1872,560 1792,640 1712,720 1632,800 1552,720 1472,640 1392,560 1360,528 1328,560 1248,640 1168,720 1088,800 
			1008,720 928,640 848,560 816,528 784,560 704,640 624,720 544,800 464,720 384,640 304,560 272,528 240,560 160,640 80,720 
			0,800 0,872 72,800 152,720 232,640 272,600 312,640 392,720 472,800 544,872 616,800 696,720 776,640 816,600 856,640 936,720 
			1016,800 1088,872 1160,800 1240,720 1320,640 1360,600 1400,640 1480,720 1560,800 1632,872 1704,800 1784,720 1864,640 
			1904,600 1944,640 2024,720 2104,800 2176,872 2248,800 2328,720 2408,640 2448,600 2488,640 2568,720 2648,800 2720,872 
			2720,800 2640,720 		"/>
		<polygon class="st0" points="2560,1120 2480,1040 2448,1008 2416,1040 2336,1120 2256,1200 2176,1280 2096,1200 2016,1120 
			1936,1040 1904,1008 1872,1040 1792,1120 1712,1200 1632,1280 1552,1200 1472,1120 1392,1040 1360,1008 1328,1040 1248,1120 
			1168,1200 1088,1280 1008,1200 928,1120 848,1040 816,1008 784,1040 704,1120 624,1200 544,1280 464,1200 384,1120 304,1040 
			272,1008 240,1040 160,1120 80,1200 0,1280 0,1352 72,1280 152,1200 232,1120 272,1080 312,1120 392,1200 472,1280 544,1352 
			616,1280 696,1200 776,1120 816,1080 856,1120 936,1200 1016,1280 1088,1352 1160,1280 1240,1200 1320,1120 1360,1080 1400,1120 
			1480,1200 1560,1280 1632,1352 1704,1280 1784,1200 1864,1120 1904,1080 1944,1120 2024,1200 2104,1280 2176,1352 2248,1280 
			2328,1200 2408,1120 2448,1080 2488,1120 2568,1200 2648,1280 2720,1352 2720,1280 2640,1200 		"/>
		<polygon class="st0" points="2560,2480 2480,2400 2448,2368 2416,2400 2336,2480 2256,2560 2176,2640 2096,2560 2016,2480 
			1936,2400 1904,2368 1872,2400 1792,2480 1712,2560 1632,2640 1552,2560 1472,2480 1392,2400 1360,2368 1328,2400 1248,2480 
			1168,2560 1088,2640 1008,2560 928,2480 848,2400 816,2368 784,2400 704,2480 624,2560 544,2640 464,2560 384,2480 304,2400 
			272,2368 240,2400 160,2480 80,2560 0,2640 0,2712 72,2640 152,2560 232,2480 272,2440 312,2480 392,2560 472,2640 544,2712 
			616,2640 696,2560 776,2480 816,2440 856,2480 936,2560 1016,2640 1088,2712 1160,2640 1240,2560 1320,2480 1360,2440 1400,2480 
			1480,2560 1560,2640 1632,2712 1704,2640 1784,2560 1864,2480 1904,2440 1944,2480 2024,2560 2104,2640 2176,2712 2248,2640 
			2328,2560 2408,2480 2448,2440 2488,2480 2568,2560 2648,2640 2720,2712 2720,2640 2640,2560 		"/>
		<polygon class="st0" points="2560,960 2480,880 2448,848 2416,880 2336,960 2256,1040 2176,1120 2096,1040 2016,960 1936,880 
			1904,848 1872,880 1792,960 1712,1040 1632,1120 1552,1040 1472,960 1392,880 1360,848 1328,880 1248,960 1168,1040 1088,1120 
			1008,1040 928,960 848,880 816,848 784,880 704,960 624,1040 544,1120 464,1040 384,960 304,880 272,848 240,880 160,960 80,1040 
			0,1120 0,1192 72,1120 152,1040 232,960 272,920 312,960 392,1040 472,1120 544,1192 616,1120 696,1040 776,960 816,920 856,960 
			936,1040 1016,1120 1088,1192 1160,1120 1240,1040 1320,960 1360,920 1400,960 1480,1040 1560,1120 1632,1192 1704,1120 
			1784,1040 1864,960 1904,920 1944,960 2024,1040 2104,1120 2176,1192 2248,1120 2328,1040 2408,960 2448,920 2488,960 2568,1040 
			2648,1120 2720,1192 2720,1120 2640,1040 		"/>
		<polygon class="st0" points="2560,880 2480,800 2448,768 2416,800 2336,880 2256,960 2176,1040 2096,960 2016,880 1936,800 
			1904,768 1872,800 1792,880 1712,960 1632,1040 1552,960 1472,880 1392,800 1360,768 1328,800 1248,880 1168,960 1088,1040 
			1008,960 928,880 848,800 816,768 784,800 704,880 624,960 544,1040 464,960 384,880 304,800 272,768 240,800 160,880 80,960 
			0,1040 0,1112 72,1040 152,960 232,880 272,840 312,880 392,960 472,1040 544,1112 616,1040 696,960 776,880 816,840 856,880 
			936,960 1016,1040 1088,1112 1160,1040 1240,960 1320,880 1360,840 1400,880 1480,960 1560,1040 1632,1112 1704,1040 1784,960 
			1864,880 1904,840 1944,880 2024,960 2104,1040 2176,1112 2248,1040 2328,960 2408,880 2448,840 2488,880 2568,960 2648,1040 
			2720,1112 2720,1040 2640,960 		"/>
		<polygon class="st0" points="2560,0 2488,0 2568,80 2648,160 2720,232 2720,160 2640,80 		"/>
		<polygon class="st0" points="2560,80 2480,0 2416,0 2336,80 2256,160 2176,240 2096,160 2016,80 1936,0 1872,0 1792,80 1712,160 
			1632,240 1552,160 1472,80 1392,0 1328,0 1248,80 1168,160 1088,240 1008,160 928,80 848,0 784,0 704,80 624,160 544,240 464,160 
			384,80 304,0 240,0 160,80 80,160 0,240 0,312 72,240 152,160 232,80 272,40 312,80 392,160 472,240 544,312 616,240 696,160 
			776,80 816,40 856,80 936,160 1016,240 1088,312 1160,240 1240,160 1320,80 1360,40 1400,80 1480,160 1560,240 1632,312 1704,240 
			1784,160 1864,80 1904,40 1944,80 2024,160 2104,240 2176,312 2248,240 2328,160 2408,80 2448,40 2488,80 2568,160 2648,240 
			2720,312 2720,240 2640,160 		"/>
		<polygon class="st0" points="2568,0 2648,80 2720,152 2720,80 2640,0 		"/>
		<polygon class="st0" points="2648,0 2720,72 2720,0 		"/>
		<polygon class="st0" points="2560,320 2480,240 2448,208 2416,240 2336,320 2256,400 2176,480 2096,400 2016,320 1936,240 
			1904,208 1872,240 1792,320 1712,400 1632,480 1552,400 1472,320 1392,240 1360,208 1328,240 1248,320 1168,400 1088,480 
			1008,400 928,320 848,240 816,208 784,240 704,320 624,400 544,480 464,400 384,320 304,240 272,208 240,240 160,320 80,400 
			0,480 0,552 72,480 152,400 232,320 272,280 312,320 392,400 472,480 544,552 616,480 696,400 776,320 816,280 856,320 936,400 
			1016,480 1088,552 1160,480 1240,400 1320,320 1360,280 1400,320 1480,400 1560,480 1632,552 1704,480 1784,400 1864,320 
			1904,280 1944,320 2024,400 2104,480 2176,552 2248,480 2328,400 2408,320 2448,280 2488,320 2568,400 2648,480 2720,552 
			2720,480 2640,400 		"/>
		<polygon class="st0" points="2560,160 2480,80 2448,48 2416,80 2336,160 2256,240 2176,320 2096,240 2016,160 1936,80 1904,48 
			1872,80 1792,160 1712,240 1632,320 1552,240 1472,160 1392,80 1360,48 1328,80 1248,160 1168,240 1088,320 1008,240 928,160 
			848,80 816,48 784,80 704,160 624,240 544,320 464,240 384,160 304,80 272,48 240,80 160,160 80,240 0,320 0,392 72,320 152,240 
			232,160 272,120 312,160 392,240 472,320 544,392 616,320 696,240 776,160 816,120 856,160 936,240 1016,320 1088,392 1160,320 
			1240,240 1320,160 1360,120 1400,160 1480,240 1560,320 1632,392 1704,320 1784,240 1864,160 1904,120 1944,160 2024,240 
			2104,320 2176,392 2248,320 2328,240 2408,160 2448,120 2488,160 2568,240 2648,320 2720,392 2720,320 2640,240 		"/>
		<polygon class="st0" points="2560,400 2480,320 2448,288 2416,320 2336,400 2256,480 2176,560 2096,480 2016,400 1936,320 
			1904,288 1872,320 1792,400 1712,480 1632,560 1552,480 1472,400 1392,320 1360,288 1328,320 1248,400 1168,480 1088,560 
			1008,480 928,400 848,320 816,288 784,320 704,400 624,480 544,560 464,480 384,400 304,320 272,288 240,320 160,400 80,480 
			0,560 0,632 72,560 152,480 232,400 272,360 312,400 392,480 472,560 544,632 616,560 696,480 776,400 816,360 856,400 936,480 
			1016,560 1088,632 1160,560 1240,480 1320,400 1360,360 1400,400 1480,480 1560,560 1632,632 1704,560 1784,480 1864,400 
			1904,360 1944,400 2024,480 2104,560 2176,632 2248,560 2328,480 2408,400 2448,360 2488,400 2568,480 2648,560 2720,632 
			2720,560 2640,480 		"/>
		<polygon class="st0" points="2560,240 2480,160 2448,128 2416,160 2336,240 2256,320 2176,400 2096,320 2016,240 1936,160 
			1904,128 1872,160 1792,240 1712,320 1632,400 1552,320 1472,240 1392,160 1360,128 1328,160 1248,240 1168,320 1088,400 
			1008,320 928,240 848,160 816,128 784,160 704,240 624,320 544,400 464,320 384,240 304,160 272,128 240,160 160,240 80,320 
			0,400 0,472 72,400 152,320 232,240 272,200 312,240 392,320 472,400 544,472 616,400 696,320 776,240 816,200 856,240 936,320 
			1016,400 1088,472 1160,400 1240,320 1320,240 1360,200 1400,240 1480,320 1560,400 1632,472 1704,400 1784,320 1864,240 
			1904,200 1944,240 2024,320 2104,400 2176,472 2248,400 2328,320 2408,240 2448,200 2488,240 2568,320 2648,400 2720,472 
			2720,400 2640,320 		"/>
		<polygon class="st0" points="2560,1040 2480,960 2448,928 2416,960 2336,1040 2256,1120 2176,1200 2096,1120 2016,1040 1936,960 
			1904,928 1872,960 1792,1040 1712,1120 1632,1200 1552,1120 1472,1040 1392,960 1360,928 1328,960 1248,1040 1168,1120 1088,1200 
			1008,1120 928,1040 848,960 816,928 784,960 704,1040 624,1120 544,1200 464,1120 384,1040 304,960 272,928 240,960 160,1040 
			80,1120 0,1200 0,1272 72,1200 152,1120 232,1040 272,1000 312,1040 392,1120 472,1200 544,1272 616,1200 696,1120 776,1040 
			816,1000 856,1040 936,1120 1016,1200 1088,1272 1160,1200 1240,1120 1320,1040 1360,1000 1400,1040 1480,1120 1560,1200 
			1632,1272 1704,1200 1784,1120 1864,1040 1904,1000 1944,1040 2024,1120 2104,1200 2176,1272 2248,1200 2328,1120 2408,1040 
			2448,1000 2488,1040 2568,1120 2648,1200 2720,1272 2720,1200 2640,1120 		"/>
		<polygon class="st0" points="2560,2080 2480,2000 2448,1968 2416,2000 2336,2080 2256,2160 2176,2240 2096,2160 2016,2080 
			1936,2000 1904,1968 1872,2000 1792,2080 1712,2160 1632,2240 1552,2160 1472,2080 1392,2000 1360,1968 1328,2000 1248,2080 
			1168,2160 1088,2240 1008,2160 928,2080 848,2000 816,1968 784,2000 704,2080 624,2160 544,2240 464,2160 384,2080 304,2000 
			272,1968 240,2000 160,2080 80,2160 0,2240 0,2312 72,2240 152,2160 232,2080 272,2040 312,2080 392,2160 472,2240 544,2312 
			616,2240 696,2160 776,2080 816,2040 856,2080 936,2160 1016,2240 1088,2312 1160,2240 1240,2160 1320,2080 1360,2040 1400,2080 
			1480,2160 1560,2240 1632,2312 1704,2240 1784,2160 1864,2080 1904,2040 1944,2080 2024,2160 2104,2240 2176,2312 2248,2240 
			2328,2160 2408,2080 2448,2040 2488,2080 2568,2160 2648,2240 2720,2312 2720,2240 2640,2160 		"/>
		<polygon class="st0" points="2560,2000 2480,1920 2448,1888 2416,1920 2336,2000 2256,2080 2176,2160 2096,2080 2016,2000 
			1936,1920 1904,1888 1872,1920 1792,2000 1712,2080 1632,2160 1552,2080 1472,2000 1392,1920 1360,1888 1328,1920 1248,2000 
			1168,2080 1088,2160 1008,2080 928,2000 848,1920 816,1888 784,1920 704,2000 624,2080 544,2160 464,2080 384,2000 304,1920 
			272,1888 240,1920 160,2000 80,2080 0,2160 0,2232 72,2160 152,2080 232,2000 272,1960 312,2000 392,2080 472,2160 544,2232 
			616,2160 696,2080 776,2000 816,1960 856,2000 936,2080 1016,2160 1088,2232 1160,2160 1240,2080 1320,2000 1360,1960 1400,2000 
			1480,2080 1560,2160 1632,2232 1704,2160 1784,2080 1864,2000 1904,1960 1944,2000 2024,2080 2104,2160 2176,2232 2248,2160 
			2328,2080 2408,2000 2448,1960 2488,2000 2568,2080 2648,2160 2720,2232 2720,2160 2640,2080 		"/>
		<polygon class="st0" points="2560,1920 2480,1840 2448,1808 2416,1840 2336,1920 2256,2000 2176,2080 2096,2000 2016,1920 
			1936,1840 1904,1808 1872,1840 1792,1920 1712,2000 1632,2080 1552,2000 1472,1920 1392,1840 1360,1808 1328,1840 1248,1920 
			1168,2000 1088,2080 1008,2000 928,1920 848,1840 816,1808 784,1840 704,1920 624,2000 544,2080 464,2000 384,1920 304,1840 
			272,1808 240,1840 160,1920 80,2000 0,2080 0,2152 72,2080 152,2000 232,1920 272,1880 312,1920 392,2000 472,2080 544,2152 
			616,2080 696,2000 776,1920 816,1880 856,1920 936,2000 1016,2080 1088,2152 1160,2080 1240,2000 1320,1920 1360,1880 1400,1920 
			1480,2000 1560,2080 1632,2152 1704,2080 1784,2000 1864,1920 1904,1880 1944,1920 2024,2000 2104,2080 2176,2152 2248,2080 
			2328,2000 2408,1920 2448,1880 2488,1920 2568,2000 2648,2080 2720,2152 2720,2080 2640,2000 		"/>
		<polygon class="st0" points="2560,2160 2480,2080 2448,2048 2416,2080 2336,2160 2256,2240 2176,2320 2096,2240 2016,2160 
			1936,2080 1904,2048 1872,2080 1792,2160 1712,2240 1632,2320 1552,2240 1472,2160 1392,2080 1360,2048 1328,2080 1248,2160 
			1168,2240 1088,2320 1008,2240 928,2160 848,2080 816,2048 784,2080 704,2160 624,2240 544,2320 464,2240 384,2160 304,2080 
			272,2048 240,2080 160,2160 80,2240 0,2320 0,2392 72,2320 152,2240 232,2160 272,2120 312,2160 392,2240 472,2320 544,2392 
			616,2320 696,2240 776,2160 816,2120 856,2160 936,2240 1016,2320 1088,2392 1160,2320 1240,2240 1320,2160 1360,2120 1400,2160 
			1480,2240 1560,2320 1632,2392 1704,2320 1784,2240 1864,2160 1904,2120 1944,2160 2024,2240 2104,2320 2176,2392 2248,2320 
			2328,2240 2408,2160 2448,2120 2488,2160 2568,2240 2648,2320 2720,2392 2720,2320 2640,2240 		"/>
		<polygon class="st0" points="2560,2320 2480,2240 2448,2208 2416,2240 2336,2320 2256,2400 2176,2480 2096,2400 2016,2320 
			1936,2240 1904,2208 1872,2240 1792,2320 1712,2400 1632,2480 1552,2400 1472,2320 1392,2240 1360,2208 1328,2240 1248,2320 
			1168,2400 1088,2480 1008,2400 928,2320 848,2240 816,2208 784,2240 704,2320 624,2400 544,2480 464,2400 384,2320 304,2240 
			272,2208 240,2240 160,2320 80,2400 0,2480 0,2552 72,2480 152,2400 232,2320 272,2280 312,2320 392,2400 472,2480 544,2552 
			616,2480 696,2400 776,2320 816,2280 856,2320 936,2400 1016,2480 1088,2552 1160,2480 1240,2400 1320,2320 1360,2280 1400,2320 
			1480,2400 1560,2480 1632,2552 1704,2480 1784,2400 1864,2320 1904,2280 1944,2320 2024,2400 2104,2480 2176,2552 2248,2480 
			2328,2400 2408,2320 2448,2280 2488,2320 2568,2400 2648,2480 2720,2552 2720,2480 2640,2400 		"/>
		<polygon class="st0" points="2560,2400 2480,2320 2448,2288 2416,2320 2336,2400 2256,2480 2176,2560 2096,2480 2016,2400 
			1936,2320 1904,2288 1872,2320 1792,2400 1712,2480 1632,2560 1552,2480 1472,2400 1392,2320 1360,2288 1328,2320 1248,2400 
			1168,2480 1088,2560 1008,2480 928,2400 848,2320 816,2288 784,2320 704,2400 624,2480 544,2560 464,2480 384,2400 304,2320 
			272,2288 240,2320 160,2400 80,2480 0,2560 0,2632 72,2560 152,2480 232,2400 272,2360 312,2400 392,2480 472,2560 544,2632 
			616,2560 696,2480 776,2400 816,2360 856,2400 936,2480 1016,2560 1088,2632 1160,2560 1240,2480 1320,2400 1360,2360 1400,2400 
			1480,2480 1560,2560 1632,2632 1704,2560 1784,2480 1864,2400 1904,2360 1944,2400 2024,2480 2104,2560 2176,2632 2248,2560 
			2328,2480 2408,2400 2448,2360 2488,2400 2568,2480 2648,2560 2720,2632 2720,2560 2640,2480 		"/>
		<polygon class="st0" points="2560,2240 2480,2160 2448,2128 2416,2160 2336,2240 2256,2320 2176,2400 2096,2320 2016,2240 
			1936,2160 1904,2128 1872,2160 1792,2240 1712,2320 1632,2400 1552,2320 1472,2240 1392,2160 1360,2128 1328,2160 1248,2240 
			1168,2320 1088,2400 1008,2320 928,2240 848,2160 816,2128 784,2160 704,2240 624,2320 544,2400 464,2320 384,2240 304,2160 
			272,2128 240,2160 160,2240 80,2320 0,2400 0,2472 72,2400 152,2320 232,2240 272,2200 312,2240 392,2320 472,2400 544,2472 
			616,2400 696,2320 776,2240 816,2200 856,2240 936,2320 1016,2400 1088,2472 1160,2400 1240,2320 1320,2240 1360,2200 1400,2240 
			1480,2320 1560,2400 1632,2472 1704,2400 1784,2320 1864,2240 1904,2200 1944,2240 2024,2320 2104,2400 2176,2472 2248,2400 
			2328,2320 2408,2240 2448,2200 2488,2240 2568,2320 2648,2400 2720,2472 2720,2400 2640,2320 		"/>
		<polygon class="st0" points="2560,1840 2480,1760 2448,1728 2416,1760 2336,1840 2256,1920 2176,2000 2096,1920 2016,1840 
			1936,1760 1904,1728 1872,1760 1792,1840 1712,1920 1632,2000 1552,1920 1472,1840 1392,1760 1360,1728 1328,1760 1248,1840 
			1168,1920 1088,2000 1008,1920 928,1840 848,1760 816,1728 784,1760 704,1840 624,1920 544,2000 464,1920 384,1840 304,1760 
			272,1728 240,1760 160,1840 80,1920 0,2000 0,2072 72,2000 152,1920 232,1840 272,1800 312,1840 392,1920 472,2000 544,2072 
			616,2000 696,1920 776,1840 816,1800 856,1840 936,1920 1016,2000 1088,2072 1160,2000 1240,1920 1320,1840 1360,1800 1400,1840 
			1480,1920 1560,2000 1632,2072 1704,2000 1784,1920 1864,1840 1904,1800 1944,1840 2024,1920 2104,2000 2176,2072 2248,2000 
			2328,1920 2408,1840 2448,1800 2488,1840 2568,1920 2648,2000 2720,2072 2720,2000 2640,1920 		"/>
		<polygon class="st0" points="2560,1360 2480,1280 2448,1248 2416,1280 2336,1360 2256,1440 2176,1520 2096,1440 2016,1360 
			1936,1280 1904,1248 1872,1280 1792,1360 1712,1440 1632,1520 1552,1440 1472,1360 1392,1280 1360,1248 1328,1280 1248,1360 
			1168,1440 1088,1520 1008,1440 928,1360 848,1280 816,1248 784,1280 704,1360 624,1440 544,1520 464,1440 384,1360 304,1280 
			272,1248 240,1280 160,1360 80,1440 0,1520 0,1592 72,1520 152,1440 232,1360 272,1320 312,1360 392,1440 472,1520 544,1592 
			616,1520 696,1440 776,1360 816,1320 856,1360 936,1440 1016,1520 1088,1592 1160,1520 1240,1440 1320,1360 1360,1320 1400,1360 
			1480,1440 1560,1520 1632,1592 1704,1520 1784,1440 1864,1360 1904,1320 1944,1360 2024,1440 2104,1520 2176,1592 2248,1520 
			2328,1440 2408,1360 2448,1320 2488,1360 2568,1440 2648,1520 2720,1592 2720,1520 2640,1440 		"/>
		<polygon class="st0" points="2560,1200 2480,1120 2448,1088 2416,1120 2336,1200 2256,1280 2176,1360 2096,1280 2016,1200 
			1936,1120 1904,1088 1872,1120 1792,1200 1712,1280 1632,1360 1552,1280 1472,1200 1392,1120 1360,1088 1328,1120 1248,1200 
			1168,1280 1088,1360 1008,1280 928,1200 848,1120 816,1088 784,1120 704,1200 624,1280 544,1360 464,1280 384,1200 304,1120 
			272,1088 240,1120 160,1200 80,1280 0,1360 0,1432 72,1360 152,1280 232,1200 272,1160 312,1200 392,1280 472,1360 544,1432 
			616,1360 696,1280 776,1200 816,1160 856,1200 936,1280 1016,1360 1088,1432 1160,1360 1240,1280 1320,1200 1360,1160 1400,1200 
			1480,1280 1560,1360 1632,1432 1704,1360 1784,1280 1864,1200 1904,1160 1944,1200 2024,1280 2104,1360 2176,1432 2248,1360 
			2328,1280 2408,1200 2448,1160 2488,1200 2568,1280 2648,1360 2720,1432 2720,1360 2640,1280 		"/>
		<polygon class="st0" points="2560,1280 2480,1200 2448,1168 2416,1200 2336,1280 2256,1360 2176,1440 2096,1360 2016,1280 
			1936,1200 1904,1168 1872,1200 1792,1280 1712,1360 1632,1440 1552,1360 1472,1280 1392,1200 1360,1168 1328,1200 1248,1280 
			1168,1360 1088,1440 1008,1360 928,1280 848,1200 816,1168 784,1200 704,1280 624,1360 544,1440 464,1360 384,1280 304,1200 
			272,1168 240,1200 160,1280 80,1360 0,1440 0,1512 72,1440 152,1360 232,1280 272,1240 312,1280 392,1360 472,1440 544,1512 
			616,1440 696,1360 776,1280 816,1240 856,1280 936,1360 1016,1440 1088,1512 1160,1440 1240,1360 1320,1280 1360,1240 1400,1280 
			1480,1360 1560,1440 1632,1512 1704,1440 1784,1360 1864,1280 1904,1240 1944,1280 2024,1360 2104,1440 2176,1512 2248,1440 
			2328,1360 2408,1280 2448,1240 2488,1280 2568,1360 2648,1440 2720,1512 2720,1440 2640,1360 		"/>
		<polygon class="st0" points="2560,1440 2480,1360 2448,1328 2416,1360 2336,1440 2256,1520 2176,1600 2096,1520 2016,1440 
			1936,1360 1904,1328 1872,1360 1792,1440 1712,1520 1632,1600 1552,1520 1472,1440 1392,1360 1360,1328 1328,1360 1248,1440 
			1168,1520 1088,1600 1008,1520 928,1440 848,1360 816,1328 784,1360 704,1440 624,1520 544,1600 464,1520 384,1440 304,1360 
			272,1328 240,1360 160,1440 80,1520 0,1600 0,1672 72,1600 152,1520 232,1440 272,1400 312,1440 392,1520 472,1600 544,1672 
			616,1600 696,1520 776,1440 816,1400 856,1440 936,1520 1016,1600 1088,1672 1160,1600 1240,1520 1320,1440 1360,1400 1400,1440 
			1480,1520 1560,1600 1632,1672 1704,1600 1784,1520 1864,1440 1904,1400 1944,1440 2024,1520 2104,1600 2176,1672 2248,1600 
			2328,1520 2408,1440 2448,1400 2488,1440 2568,1520 2648,1600 2720,1672 2720,1600 2640,1520 		"/>
		<polygon class="st0" points="2560,1600 2480,1520 2448,1488 2416,1520 2336,1600 2256,1680 2176,1760 2096,1680 2016,1600 
			1936,1520 1904,1488 1872,1520 1792,1600 1712,1680 1632,1760 1552,1680 1472,1600 1392,1520 1360,1488 1328,1520 1248,1600 
			1168,1680 1088,1760 1008,1680 928,1600 848,1520 816,1488 784,1520 704,1600 624,1680 544,1760 464,1680 384,1600 304,1520 
			272,1488 240,1520 160,1600 80,1680 0,1760 0,1832 72,1760 152,1680 232,1600 272,1560 312,1600 392,1680 472,1760 544,1832 
			616,1760 696,1680 776,1600 816,1560 856,1600 936,1680 1016,1760 1088,1832 1160,1760 1240,1680 1320,1600 1360,1560 1400,1600 
			1480,1680 1560,1760 1632,1832 1704,1760 1784,1680 1864,1600 1904,1560 1944,1600 2024,1680 2104,1760 2176,1832 2248,1760 
			2328,1680 2408,1600 2448,1560 2488,1600 2568,1680 2648,1760 2720,1832 2720,1760 2640,1680 		"/>
		<polygon class="st0" points="2560,1520 2480,1440 2448,1408 2416,1440 2336,1520 2256,1600 2176,1680 2096,1600 2016,1520 
			1936,1440 1904,1408 1872,1440 1792,1520 1712,1600 1632,1680 1552,1600 1472,1520 1392,1440 1360,1408 1328,1440 1248,1520 
			1168,1600 1088,1680 1008,1600 928,1520 848,1440 816,1408 784,1440 704,1520 624,1600 544,1680 464,1600 384,1520 304,1440 
			272,1408 240,1440 160,1520 80,1600 0,1680 0,1752 72,1680 152,1600 232,1520 272,1480 312,1520 392,1600 472,1680 544,1752 
			616,1680 696,1600 776,1520 816,1480 856,1520 936,1600 1016,1680 1088,1752 1160,1680 1240,1600 1320,1520 1360,1480 1400,1520 
			1480,1600 1560,1680 1632,1752 1704,1680 1784,1600 1864,1520 1904,1480 1944,1520 2024,1600 2104,1680 2176,1752 2248,1680 
			2328,1600 2408,1520 2448,1480 2488,1520 2568,1600 2648,1680 2720,1752 2720,1680 2640,1600 		"/>
		<polygon class="st0" points="2560,1680 2480,1600 2448,1568 2416,1600 2336,1680 2256,1760 2176,1840 2096,1760 2016,1680 
			1936,1600 1904,1568 1872,1600 1792,1680 1712,1760 1632,1840 1552,1760 1472,1680 1392,1600 1360,1568 1328,1600 1248,1680 
			1168,1760 1088,1840 1008,1760 928,1680 848,1600 816,1568 784,1600 704,1680 624,1760 544,1840 464,1760 384,1680 304,1600 
			272,1568 240,1600 160,1680 80,1760 0,1840 0,1912 72,1840 152,1760 232,1680 272,1640 312,1680 392,1760 472,1840 544,1912 
			616,1840 696,1760 776,1680 816,1640 856,1680 936,1760 1016,1840 1088,1912 1160,1840 1240,1760 1320,1680 1360,1640 1400,1680 
			1480,1760 1560,1840 1632,1912 1704,1840 1784,1760 1864,1680 1904,1640 1944,1680 2024,1760 2104,1840 2176,1912 2248,1840 
			2328,1760 2408,1680 2448,1640 2488,1680 2568,1760 2648,1840 2720,1912 2720,1840 2640,1760 		"/>
		<polygon class="st0" points="2560,1760 2480,1680 2448,1648 2416,1680 2336,1760 2256,1840 2176,1920 2096,1840 2016,1760 
			1936,1680 1904,1648 1872,1680 1792,1760 1712,1840 1632,1920 1552,1840 1472,1760 1392,1680 1360,1648 1328,1680 1248,1760 
			1168,1840 1088,1920 1008,1840 928,1760 848,1680 816,1648 784,1680 704,1760 624,1840 544,1920 464,1840 384,1760 304,1680 
			272,1648 240,1680 160,1760 80,1840 0,1920 0,1992 72,1920 152,1840 232,1760 272,1720 312,1760 392,1840 472,1920 544,1992 
			616,1920 696,1840 776,1760 816,1720 856,1760 936,1840 1016,1920 1088,1992 1160,1920 1240,1840 1320,1760 1360,1720 1400,1760 
			1480,1840 1560,1920 1632,1992 1704,1920 1784,1840 1864,1760 1904,1720 1944,1760 2024,1840 2104,1920 2176,1992 2248,1920 
			2328,1840 2408,1760 2448,1720 2488,1760 2568,1840 2648,1920 2720,1992 2720,1920 2640,1840 		"/>
	</g>
	<g>
		<polygon class="st1" points="72,0 0,72 0,80 80,0 		"/>
		<polygon class="st1" points="160,0 152,0 72,80 0,152 0,160 80,80 		"/>
		<polygon class="st1" points="624,0 616,0 544,72 472,0 464,0 544,80 		"/>
		<polygon class="st1" points="1168,0 1160,0 1088,72 1016,0 1008,0 1088,80 		"/>
		<polygon class="st1" points="1712,0 1704,0 1632,72 1560,0 1552,0 1632,80 		"/>
		<polygon class="st1" points="2256,0 2248,0 2176,72 2104,0 2096,0 2176,80 		"/>
		<polygon class="st1" points="2648,0 2640,0 2720,80 2720,72 		"/>
		<polygon class="st1" points="2568,0 2560,0 2640,80 2720,160 2720,152 2648,80 		"/>
		<polygon class="st1" points="544,160 624,80 704,0 696,0 616,80 544,152 472,80 392,0 384,0 464,80 		"/>
		<polygon class="st1" points="160,80 240,0 232,0 152,80 72,160 0,232 0,240 80,160 		"/>
		<polygon class="st1" points="464,160 544,240 624,160 704,80 784,0 776,0 696,80 616,160 544,232 472,160 392,80 312,0 304,0 
			384,80 		"/>
		<polygon class="st1" points="1088,160 1168,80 1248,0 1240,0 1160,80 1088,152 1016,80 936,0 928,0 1008,80 		"/>
		<polygon class="st1" points="1008,160 1088,240 1168,160 1248,80 1328,0 1320,0 1240,80 1160,160 1088,232 1016,160 936,80 856,0 
			848,0 928,80 		"/>
		<polygon class="st1" points="1632,160 1712,80 1792,0 1784,0 1704,80 1632,152 1560,80 1480,0 1472,0 1552,80 		"/>
		<polygon class="st1" points="1552,160 1632,240 1712,160 1792,80 1872,0 1864,0 1784,80 1704,160 1632,232 1560,160 1480,80 
			1400,0 1392,0 1472,80 		"/>
		<polygon class="st1" points="2176,160 2256,80 2336,0 2328,0 2248,80 2176,152 2104,80 2024,0 2016,0 2096,80 		"/>
		<polygon class="st1" points="2096,160 2176,240 2256,160 2336,80 2416,0 2408,0 2328,80 2248,160 2176,232 2104,160 2024,80 
			1944,0 1936,0 2016,80 		"/>
		<polygon class="st1" points="2568,80 2488,0 2480,0 2560,80 2640,160 2720,240 2720,232 2648,160 		"/>
		<polygon class="st1" points="2568,160 2488,80 2448,40 2408,80 2328,160 2248,240 2176,312 2104,240 2024,160 1944,80 1904,40 
			1864,80 1784,160 1704,240 1632,312 1560,240 1480,160 1400,80 1360,40 1320,80 1240,160 1160,240 1088,312 1016,240 936,160 
			856,80 816,40 776,80 696,160 616,240 544,312 472,240 392,160 312,80 272,40 232,80 152,160 72,240 0,312 0,320 80,240 160,160 
			240,80 272,48 304,80 384,160 464,240 544,320 624,240 704,160 784,80 816,48 848,80 928,160 1008,240 1088,320 1168,240 
			1248,160 1328,80 1360,48 1392,80 1472,160 1552,240 1632,320 1712,240 1792,160 1872,80 1904,48 1936,80 2016,160 2096,240 
			2176,320 2256,240 2336,160 2416,80 2448,48 2480,80 2560,160 2640,240 2720,320 2720,312 2648,240 		"/>
		<polygon class="st1" points="2568,240 2488,160 2448,120 2408,160 2328,240 2248,320 2176,392 2104,320 2024,240 1944,160 
			1904,120 1864,160 1784,240 1704,320 1632,392 1560,320 1480,240 1400,160 1360,120 1320,160 1240,240 1160,320 1088,392 
			1016,320 936,240 856,160 816,120 776,160 696,240 616,320 544,392 472,320 392,240 312,160 272,120 232,160 152,240 72,320 
			0,392 0,400 80,320 160,240 240,160 272,128 304,160 384,240 464,320 544,400 624,320 704,240 784,160 816,128 848,160 928,240 
			1008,320 1088,400 1168,320 1248,240 1328,160 1360,128 1392,160 1472,240 1552,320 1632,400 1712,320 1792,240 1872,160 
			1904,128 1936,160 2016,240 2096,320 2176,400 2256,320 2336,240 2416,160 2448,128 2480,160 2560,240 2640,320 2720,400 
			2720,392 2648,320 		"/>
		<polygon class="st1" points="2568,320 2488,240 2448,200 2408,240 2328,320 2248,400 2176,472 2104,400 2024,320 1944,240 
			1904,200 1864,240 1784,320 1704,400 1632,472 1560,400 1480,320 1400,240 1360,200 1320,240 1240,320 1160,400 1088,472 
			1016,400 936,320 856,240 816,200 776,240 696,320 616,400 544,472 472,400 392,320 312,240 272,200 232,240 152,320 72,400 
			0,472 0,480 80,400 160,320 240,240 272,208 304,240 384,320 464,400 544,480 624,400 704,320 784,240 816,208 848,240 928,320 
			1008,400 1088,480 1168,400 1248,320 1328,240 1360,208 1392,240 1472,320 1552,400 1632,480 1712,400 1792,320 1872,240 
			1904,208 1936,240 2016,320 2096,400 2176,480 2256,400 2336,320 2416,240 2448,208 2480,240 2560,320 2640,400 2720,480 
			2720,472 2648,400 		"/>
		<polygon class="st1" points="2568,400 2488,320 2448,280 2408,320 2328,400 2248,480 2176,552 2104,480 2024,400 1944,320 
			1904,280 1864,320 1784,400 1704,480 1632,552 1560,480 1480,400 1400,320 1360,280 1320,320 1240,400 1160,480 1088,552 
			1016,480 936,400 856,320 816,280 776,320 696,400 616,480 544,552 472,480 392,400 312,320 272,280 232,320 152,400 72,480 
			0,552 0,560 80,480 160,400 240,320 272,288 304,320 384,400 464,480 544,560 624,480 704,400 784,320 816,288 848,320 928,400 
			1008,480 1088,560 1168,480 1248,400 1328,320 1360,288 1392,320 1472,400 1552,480 1632,560 1712,480 1792,400 1872,320 
			1904,288 1936,320 2016,400 2096,480 2176,560 2256,480 2336,400 2416,320 2448,288 2480,320 2560,400 2640,480 2720,560 
			2720,552 2648,480 		"/>
		<polygon class="st1" points="2568,480 2488,400 2448,360 2408,400 2328,480 2248,560 2176,632 2104,560 2024,480 1944,400 
			1904,360 1864,400 1784,480 1704,560 1632,632 1560,560 1480,480 1400,400 1360,360 1320,400 1240,480 1160,560 1088,632 
			1016,560 936,480 856,400 816,360 776,400 696,480 616,560 544,632 472,560 392,480 312,400 272,360 232,400 152,480 72,560 
			0,632 0,640 80,560 160,480 240,400 272,368 304,400 384,480 464,560 544,640 624,560 704,480 784,400 816,368 848,400 928,480 
			1008,560 1088,640 1168,560 1248,480 1328,400 1360,368 1392,400 1472,480 1552,560 1632,640 1712,560 1792,480 1872,400 
			1904,368 1936,400 2016,480 2096,560 2176,640 2256,560 2336,480 2416,400 2448,368 2480,400 2560,480 2640,560 2720,640 
			2720,632 2648,560 		"/>
		<polygon class="st1" points="2568,560 2488,480 2448,440 2408,480 2328,560 2248,640 2176,712 2104,640 2024,560 1944,480 
			1904,440 1864,480 1784,560 1704,640 1632,712 1560,640 1480,560 1400,480 1360,440 1320,480 1240,560 1160,640 1088,712 
			1016,640 936,560 856,480 816,440 776,480 696,560 616,640 544,712 472,640 392,560 312,480 272,440 232,480 152,560 72,640 
			0,712 0,720 80,640 160,560 240,480 272,448 304,480 384,560 464,640 544,720 624,640 704,560 784,480 816,448 848,480 928,560 
			1008,640 1088,720 1168,640 1248,560 1328,480 1360,448 1392,480 1472,560 1552,640 1632,720 1712,640 1792,560 1872,480 
			1904,448 1936,480 2016,560 2096,640 2176,720 2256,640 2336,560 2416,480 2448,448 2480,480 2560,560 2640,640 2720,720 
			2720,712 2648,640 		"/>
		<polygon class="st1" points="2568,640 2488,560 2448,520 2408,560 2328,640 2248,720 2176,792 2104,720 2024,640 1944,560 
			1904,520 1864,560 1784,640 1704,720 1632,792 1560,720 1480,640 1400,560 1360,520 1320,560 1240,640 1160,720 1088,792 
			1016,720 936,640 856,560 816,520 776,560 696,640 616,720 544,792 472,720 392,640 312,560 272,520 232,560 152,640 72,720 
			0,792 0,800 80,720 160,640 240,560 272,528 304,560 384,640 464,720 544,800 624,720 704,640 784,560 816,528 848,560 928,640 
			1008,720 1088,800 1168,720 1248,640 1328,560 1360,528 1392,560 1472,640 1552,720 1632,800 1712,720 1792,640 1872,560 
			1904,528 1936,560 2016,640 2096,720 2176,800 2256,720 2336,640 2416,560 2448,528 2480,560 2560,640 2640,720 2720,800 
			2720,792 2648,720 		"/>
		<polygon class="st1" points="2568,720 2488,640 2448,600 2408,640 2328,720 2248,800 2176,872 2104,800 2024,720 1944,640 
			1904,600 1864,640 1784,720 1704,800 1632,872 1560,800 1480,720 1400,640 1360,600 1320,640 1240,720 1160,800 1088,872 
			1016,800 936,720 856,640 816,600 776,640 696,720 616,800 544,872 472,800 392,720 312,640 272,600 232,640 152,720 72,800 
			0,872 0,880 80,800 160,720 240,640 272,608 304,640 384,720 464,800 544,880 624,800 704,720 784,640 816,608 848,640 928,720 
			1008,800 1088,880 1168,800 1248,720 1328,640 1360,608 1392,640 1472,720 1552,800 1632,880 1712,800 1792,720 1872,640 
			1904,608 1936,640 2016,720 2096,800 2176,880 2256,800 2336,720 2416,640 2448,608 2480,640 2560,720 2640,800 2720,880 
			2720,872 2648,800 		"/>
		<polygon class="st1" points="2568,800 2488,720 2448,680 2408,720 2328,800 2248,880 2176,952 2104,880 2024,800 1944,720 
			1904,680 1864,720 1784,800 1704,880 1632,952 1560,880 1480,800 1400,720 1360,680 1320,720 1240,800 1160,880 1088,952 
			1016,880 936,800 856,720 816,680 776,720 696,800 616,880 544,952 472,880 392,800 312,720 272,680 232,720 152,800 72,880 
			0,952 0,960 80,880 160,800 240,720 272,688 304,720 384,800 464,880 544,960 624,880 704,800 784,720 816,688 848,720 928,800 
			1008,880 1088,960 1168,880 1248,800 1328,720 1360,688 1392,720 1472,800 1552,880 1632,960 1712,880 1792,800 1872,720 
			1904,688 1936,720 2016,800 2096,880 2176,960 2256,880 2336,800 2416,720 2448,688 2480,720 2560,800 2640,880 2720,960 
			2720,952 2648,880 		"/>
		<polygon class="st1" points="2568,880 2488,800 2448,760 2408,800 2328,880 2248,960 2176,1032 2104,960 2024,880 1944,800 
			1904,760 1864,800 1784,880 1704,960 1632,1032 1560,960 1480,880 1400,800 1360,760 1320,800 1240,880 1160,960 1088,1032 
			1016,960 936,880 856,800 816,760 776,800 696,880 616,960 544,1032 472,960 392,880 312,800 272,760 232,800 152,880 72,960 
			0,1032 0,1040 80,960 160,880 240,800 272,768 304,800 384,880 464,960 544,1040 624,960 704,880 784,800 816,768 848,800 
			928,880 1008,960 1088,1040 1168,960 1248,880 1328,800 1360,768 1392,800 1472,880 1552,960 1632,1040 1712,960 1792,880 
			1872,800 1904,768 1936,800 2016,880 2096,960 2176,1040 2256,960 2336,880 2416,800 2448,768 2480,800 2560,880 2640,960 
			2720,1040 2720,1032 2648,960 		"/>
		<polygon class="st1" points="2568,960 2488,880 2448,840 2408,880 2328,960 2248,1040 2176,1112 2104,1040 2024,960 1944,880 
			1904,840 1864,880 1784,960 1704,1040 1632,1112 1560,1040 1480,960 1400,880 1360,840 1320,880 1240,960 1160,1040 1088,1112 
			1016,1040 936,960 856,880 816,840 776,880 696,960 616,1040 544,1112 472,1040 392,960 312,880 272,840 232,880 152,960 72,1040 
			0,1112 0,1120 80,1040 160,960 240,880 272,848 304,880 384,960 464,1040 544,1120 624,1040 704,960 784,880 816,848 848,880 
			928,960 1008,1040 1088,1120 1168,1040 1248,960 1328,880 1360,848 1392,880 1472,960 1552,1040 1632,1120 1712,1040 1792,960 
			1872,880 1904,848 1936,880 2016,960 2096,1040 2176,1120 2256,1040 2336,960 2416,880 2448,848 2480,880 2560,960 2640,1040 
			2720,1120 2720,1112 2648,1040 		"/>
		<polygon class="st1" points="2568,1040 2488,960 2448,920 2408,960 2328,1040 2248,1120 2176,1192 2104,1120 2024,1040 1944,960 
			1904,920 1864,960 1784,1040 1704,1120 1632,1192 1560,1120 1480,1040 1400,960 1360,920 1320,960 1240,1040 1160,1120 1088,1192 
			1016,1120 936,1040 856,960 816,920 776,960 696,1040 616,1120 544,1192 472,1120 392,1040 312,960 272,920 232,960 152,1040 
			72,1120 0,1192 0,1200 80,1120 160,1040 240,960 272,928 304,960 384,1040 464,1120 544,1200 624,1120 704,1040 784,960 816,928 
			848,960 928,1040 1008,1120 1088,1200 1168,1120 1248,1040 1328,960 1360,928 1392,960 1472,1040 1552,1120 1632,1200 1712,1120 
			1792,1040 1872,960 1904,928 1936,960 2016,1040 2096,1120 2176,1200 2256,1120 2336,1040 2416,960 2448,928 2480,960 2560,1040 
			2640,1120 2720,1200 2720,1192 2648,1120 		"/>
		<polygon class="st1" points="2568,1120 2488,1040 2448,1000 2408,1040 2328,1120 2248,1200 2176,1272 2104,1200 2024,1120 
			1944,1040 1904,1000 1864,1040 1784,1120 1704,1200 1632,1272 1560,1200 1480,1120 1400,1040 1360,1000 1320,1040 1240,1120 
			1160,1200 1088,1272 1016,1200 936,1120 856,1040 816,1000 776,1040 696,1120 616,1200 544,1272 472,1200 392,1120 312,1040 
			272,1000 232,1040 152,1120 72,1200 0,1272 0,1280 80,1200 160,1120 240,1040 272,1008 304,1040 384,1120 464,1200 544,1280 
			624,1200 704,1120 784,1040 816,1008 848,1040 928,1120 1008,1200 1088,1280 1168,1200 1248,1120 1328,1040 1360,1008 1392,1040 
			1472,1120 1552,1200 1632,1280 1712,1200 1792,1120 1872,1040 1904,1008 1936,1040 2016,1120 2096,1200 2176,1280 2256,1200 
			2336,1120 2416,1040 2448,1008 2480,1040 2560,1120 2640,1200 2720,1280 2720,1272 2648,1200 		"/>
		<polygon class="st1" points="2568,1200 2488,1120 2448,1080 2408,1120 2328,1200 2248,1280 2176,1352 2104,1280 2024,1200 
			1944,1120 1904,1080 1864,1120 1784,1200 1704,1280 1632,1352 1560,1280 1480,1200 1400,1120 1360,1080 1320,1120 1240,1200 
			1160,1280 1088,1352 1016,1280 936,1200 856,1120 816,1080 776,1120 696,1200 616,1280 544,1352 472,1280 392,1200 312,1120 
			272,1080 232,1120 152,1200 72,1280 0,1352 0,1360 80,1280 160,1200 240,1120 272,1088 304,1120 384,1200 464,1280 544,1360 
			624,1280 704,1200 784,1120 816,1088 848,1120 928,1200 1008,1280 1088,1360 1168,1280 1248,1200 1328,1120 1360,1088 1392,1120 
			1472,1200 1552,1280 1632,1360 1712,1280 1792,1200 1872,1120 1904,1088 1936,1120 2016,1200 2096,1280 2176,1360 2256,1280 
			2336,1200 2416,1120 2448,1088 2480,1120 2560,1200 2640,1280 2720,1360 2720,1352 2648,1280 		"/>
		<polygon class="st1" points="2568,1280 2488,1200 2448,1160 2408,1200 2328,1280 2248,1360 2176,1432 2104,1360 2024,1280 
			1944,1200 1904,1160 1864,1200 1784,1280 1704,1360 1632,1432 1560,1360 1480,1280 1400,1200 1360,1160 1320,1200 1240,1280 
			1160,1360 1088,1432 1016,1360 936,1280 856,1200 816,1160 776,1200 696,1280 616,1360 544,1432 472,1360 392,1280 312,1200 
			272,1160 232,1200 152,1280 72,1360 0,1432 0,1440 80,1360 160,1280 240,1200 272,1168 304,1200 384,1280 464,1360 544,1440 
			624,1360 704,1280 784,1200 816,1168 848,1200 928,1280 1008,1360 1088,1440 1168,1360 1248,1280 1328,1200 1360,1168 1392,1200 
			1472,1280 1552,1360 1632,1440 1712,1360 1792,1280 1872,1200 1904,1168 1936,1200 2016,1280 2096,1360 2176,1440 2256,1360 
			2336,1280 2416,1200 2448,1168 2480,1200 2560,1280 2640,1360 2720,1440 2720,1432 2648,1360 		"/>
		<polygon class="st1" points="2568,1360 2488,1280 2448,1240 2408,1280 2328,1360 2248,1440 2176,1512 2104,1440 2024,1360 
			1944,1280 1904,1240 1864,1280 1784,1360 1704,1440 1632,1512 1560,1440 1480,1360 1400,1280 1360,1240 1320,1280 1240,1360 
			1160,1440 1088,1512 1016,1440 936,1360 856,1280 816,1240 776,1280 696,1360 616,1440 544,1512 472,1440 392,1360 312,1280 
			272,1240 232,1280 152,1360 72,1440 0,1512 0,1520 80,1440 160,1360 240,1280 272,1248 304,1280 384,1360 464,1440 544,1520 
			624,1440 704,1360 784,1280 816,1248 848,1280 928,1360 1008,1440 1088,1520 1168,1440 1248,1360 1328,1280 1360,1248 1392,1280 
			1472,1360 1552,1440 1632,1520 1712,1440 1792,1360 1872,1280 1904,1248 1936,1280 2016,1360 2096,1440 2176,1520 2256,1440 
			2336,1360 2416,1280 2448,1248 2480,1280 2560,1360 2640,1440 2720,1520 2720,1512 2648,1440 		"/>
		<polygon class="st1" points="2568,1440 2488,1360 2448,1320 2408,1360 2328,1440 2248,1520 2176,1592 2104,1520 2024,1440 
			1944,1360 1904,1320 1864,1360 1784,1440 1704,1520 1632,1592 1560,1520 1480,1440 1400,1360 1360,1320 1320,1360 1240,1440 
			1160,1520 1088,1592 1016,1520 936,1440 856,1360 816,1320 776,1360 696,1440 616,1520 544,1592 472,1520 392,1440 312,1360 
			272,1320 232,1360 152,1440 72,1520 0,1592 0,1600 80,1520 160,1440 240,1360 272,1328 304,1360 384,1440 464,1520 544,1600 
			624,1520 704,1440 784,1360 816,1328 848,1360 928,1440 1008,1520 1088,1600 1168,1520 1248,1440 1328,1360 1360,1328 1392,1360 
			1472,1440 1552,1520 1632,1600 1712,1520 1792,1440 1872,1360 1904,1328 1936,1360 2016,1440 2096,1520 2176,1600 2256,1520 
			2336,1440 2416,1360 2448,1328 2480,1360 2560,1440 2640,1520 2720,1600 2720,1592 2648,1520 		"/>
		<polygon class="st1" points="2568,1520 2488,1440 2448,1400 2408,1440 2328,1520 2248,1600 2176,1672 2104,1600 2024,1520 
			1944,1440 1904,1400 1864,1440 1784,1520 1704,1600 1632,1672 1560,1600 1480,1520 1400,1440 1360,1400 1320,1440 1240,1520 
			1160,1600 1088,1672 1016,1600 936,1520 856,1440 816,1400 776,1440 696,1520 616,1600 544,1672 472,1600 392,1520 312,1440 
			272,1400 232,1440 152,1520 72,1600 0,1672 0,1680 80,1600 160,1520 240,1440 272,1408 304,1440 384,1520 464,1600 544,1680 
			624,1600 704,1520 784,1440 816,1408 848,1440 928,1520 1008,1600 1088,1680 1168,1600 1248,1520 1328,1440 1360,1408 1392,1440 
			1472,1520 1552,1600 1632,1680 1712,1600 1792,1520 1872,1440 1904,1408 1936,1440 2016,1520 2096,1600 2176,1680 2256,1600 
			2336,1520 2416,1440 2448,1408 2480,1440 2560,1520 2640,1600 2720,1680 2720,1672 2648,1600 		"/>
		<polygon class="st1" points="2568,1600 2488,1520 2448,1480 2408,1520 2328,1600 2248,1680 2176,1752 2104,1680 2024,1600 
			1944,1520 1904,1480 1864,1520 1784,1600 1704,1680 1632,1752 1560,1680 1480,1600 1400,1520 1360,1480 1320,1520 1240,1600 
			1160,1680 1088,1752 1016,1680 936,1600 856,1520 816,1480 776,1520 696,1600 616,1680 544,1752 472,1680 392,1600 312,1520 
			272,1480 232,1520 152,1600 72,1680 0,1752 0,1760 80,1680 160,1600 240,1520 272,1488 304,1520 384,1600 464,1680 544,1760 
			624,1680 704,1600 784,1520 816,1488 848,1520 928,1600 1008,1680 1088,1760 1168,1680 1248,1600 1328,1520 1360,1488 1392,1520 
			1472,1600 1552,1680 1632,1760 1712,1680 1792,1600 1872,1520 1904,1488 1936,1520 2016,1600 2096,1680 2176,1760 2256,1680 
			2336,1600 2416,1520 2448,1488 2480,1520 2560,1600 2640,1680 2720,1760 2720,1752 2648,1680 		"/>
		<polygon class="st1" points="2568,1680 2488,1600 2448,1560 2408,1600 2328,1680 2248,1760 2176,1832 2104,1760 2024,1680 
			1944,1600 1904,1560 1864,1600 1784,1680 1704,1760 1632,1832 1560,1760 1480,1680 1400,1600 1360,1560 1320,1600 1240,1680 
			1160,1760 1088,1832 1016,1760 936,1680 856,1600 816,1560 776,1600 696,1680 616,1760 544,1832 472,1760 392,1680 312,1600 
			272,1560 232,1600 152,1680 72,1760 0,1832 0,1840 80,1760 160,1680 240,1600 272,1568 304,1600 384,1680 464,1760 544,1840 
			624,1760 704,1680 784,1600 816,1568 848,1600 928,1680 1008,1760 1088,1840 1168,1760 1248,1680 1328,1600 1360,1568 1392,1600 
			1472,1680 1552,1760 1632,1840 1712,1760 1792,1680 1872,1600 1904,1568 1936,1600 2016,1680 2096,1760 2176,1840 2256,1760 
			2336,1680 2416,1600 2448,1568 2480,1600 2560,1680 2640,1760 2720,1840 2720,1832 2648,1760 		"/>
		<polygon class="st1" points="2568,1760 2488,1680 2448,1640 2408,1680 2328,1760 2248,1840 2176,1912 2104,1840 2024,1760 
			1944,1680 1904,1640 1864,1680 1784,1760 1704,1840 1632,1912 1560,1840 1480,1760 1400,1680 1360,1640 1320,1680 1240,1760 
			1160,1840 1088,1912 1016,1840 936,1760 856,1680 816,1640 776,1680 696,1760 616,1840 544,1912 472,1840 392,1760 312,1680 
			272,1640 232,1680 152,1760 72,1840 0,1912 0,1920 80,1840 160,1760 240,1680 272,1648 304,1680 384,1760 464,1840 544,1920 
			624,1840 704,1760 784,1680 816,1648 848,1680 928,1760 1008,1840 1088,1920 1168,1840 1248,1760 1328,1680 1360,1648 1392,1680 
			1472,1760 1552,1840 1632,1920 1712,1840 1792,1760 1872,1680 1904,1648 1936,1680 2016,1760 2096,1840 2176,1920 2256,1840 
			2336,1760 2416,1680 2448,1648 2480,1680 2560,1760 2640,1840 2720,1920 2720,1912 2648,1840 		"/>
		<polygon class="st1" points="2568,1840 2488,1760 2448,1720 2408,1760 2328,1840 2248,1920 2176,1992 2104,1920 2024,1840 
			1944,1760 1904,1720 1864,1760 1784,1840 1704,1920 1632,1992 1560,1920 1480,1840 1400,1760 1360,1720 1320,1760 1240,1840 
			1160,1920 1088,1992 1016,1920 936,1840 856,1760 816,1720 776,1760 696,1840 616,1920 544,1992 472,1920 392,1840 312,1760 
			272,1720 232,1760 152,1840 72,1920 0,1992 0,2000 80,1920 160,1840 240,1760 272,1728 304,1760 384,1840 464,1920 544,2000 
			624,1920 704,1840 784,1760 816,1728 848,1760 928,1840 1008,1920 1088,2000 1168,1920 1248,1840 1328,1760 1360,1728 1392,1760 
			1472,1840 1552,1920 1632,2000 1712,1920 1792,1840 1872,1760 1904,1728 1936,1760 2016,1840 2096,1920 2176,2000 2256,1920 
			2336,1840 2416,1760 2448,1728 2480,1760 2560,1840 2640,1920 2720,2000 2720,1992 2648,1920 		"/>
		<polygon class="st1" points="2568,1920 2488,1840 2448,1800 2408,1840 2328,1920 2248,2000 2176,2072 2104,2000 2024,1920 
			1944,1840 1904,1800 1864,1840 1784,1920 1704,2000 1632,2072 1560,2000 1480,1920 1400,1840 1360,1800 1320,1840 1240,1920 
			1160,2000 1088,2072 1016,2000 936,1920 856,1840 816,1800 776,1840 696,1920 616,2000 544,2072 472,2000 392,1920 312,1840 
			272,1800 232,1840 152,1920 72,2000 0,2072 0,2080 80,2000 160,1920 240,1840 272,1808 304,1840 384,1920 464,2000 544,2080 
			624,2000 704,1920 784,1840 816,1808 848,1840 928,1920 1008,2000 1088,2080 1168,2000 1248,1920 1328,1840 1360,1808 1392,1840 
			1472,1920 1552,2000 1632,2080 1712,2000 1792,1920 1872,1840 1904,1808 1936,1840 2016,1920 2096,2000 2176,2080 2256,2000 
			2336,1920 2416,1840 2448,1808 2480,1840 2560,1920 2640,2000 2720,2080 2720,2072 2648,2000 		"/>
		<polygon class="st1" points="2568,2000 2488,1920 2448,1880 2408,1920 2328,2000 2248,2080 2176,2152 2104,2080 2024,2000 
			1944,1920 1904,1880 1864,1920 1784,2000 1704,2080 1632,2152 1560,2080 1480,2000 1400,1920 1360,1880 1320,1920 1240,2000 
			1160,2080 1088,2152 1016,2080 936,2000 856,1920 816,1880 776,1920 696,2000 616,2080 544,2152 472,2080 392,2000 312,1920 
			272,1880 232,1920 152,2000 72,2080 0,2152 0,2160 80,2080 160,2000 240,1920 272,1888 304,1920 384,2000 464,2080 544,2160 
			624,2080 704,2000 784,1920 816,1888 848,1920 928,2000 1008,2080 1088,2160 1168,2080 1248,2000 1328,1920 1360,1888 1392,1920 
			1472,2000 1552,2080 1632,2160 1712,2080 1792,2000 1872,1920 1904,1888 1936,1920 2016,2000 2096,2080 2176,2160 2256,2080 
			2336,2000 2416,1920 2448,1888 2480,1920 2560,2000 2640,2080 2720,2160 2720,2152 2648,2080 		"/>
		<polygon class="st1" points="2568,2080 2488,2000 2448,1960 2408,2000 2328,2080 2248,2160 2176,2232 2104,2160 2024,2080 
			1944,2000 1904,1960 1864,2000 1784,2080 1704,2160 1632,2232 1560,2160 1480,2080 1400,2000 1360,1960 1320,2000 1240,2080 
			1160,2160 1088,2232 1016,2160 936,2080 856,2000 816,1960 776,2000 696,2080 616,2160 544,2232 472,2160 392,2080 312,2000 
			272,1960 232,2000 152,2080 72,2160 0,2232 0,2240 80,2160 160,2080 240,2000 272,1968 304,2000 384,2080 464,2160 544,2240 
			624,2160 704,2080 784,2000 816,1968 848,2000 928,2080 1008,2160 1088,2240 1168,2160 1248,2080 1328,2000 1360,1968 1392,2000 
			1472,2080 1552,2160 1632,2240 1712,2160 1792,2080 1872,2000 1904,1968 1936,2000 2016,2080 2096,2160 2176,2240 2256,2160 
			2336,2080 2416,2000 2448,1968 2480,2000 2560,2080 2640,2160 2720,2240 2720,2232 2648,2160 		"/>
		<polygon class="st1" points="2568,2160 2488,2080 2448,2040 2408,2080 2328,2160 2248,2240 2176,2312 2104,2240 2024,2160 
			1944,2080 1904,2040 1864,2080 1784,2160 1704,2240 1632,2312 1560,2240 1480,2160 1400,2080 1360,2040 1320,2080 1240,2160 
			1160,2240 1088,2312 1016,2240 936,2160 856,2080 816,2040 776,2080 696,2160 616,2240 544,2312 472,2240 392,2160 312,2080 
			272,2040 232,2080 152,2160 72,2240 0,2312 0,2320 80,2240 160,2160 240,2080 272,2048 304,2080 384,2160 464,2240 544,2320 
			624,2240 704,2160 784,2080 816,2048 848,2080 928,2160 1008,2240 1088,2320 1168,2240 1248,2160 1328,2080 1360,2048 1392,2080 
			1472,2160 1552,2240 1632,2320 1712,2240 1792,2160 1872,2080 1904,2048 1936,2080 2016,2160 2096,2240 2176,2320 2256,2240 
			2336,2160 2416,2080 2448,2048 2480,2080 2560,2160 2640,2240 2720,2320 2720,2312 2648,2240 		"/>
		<polygon class="st1" points="2568,2240 2488,2160 2448,2120 2408,2160 2328,2240 2248,2320 2176,2392 2104,2320 2024,2240 
			1944,2160 1904,2120 1864,2160 1784,2240 1704,2320 1632,2392 1560,2320 1480,2240 1400,2160 1360,2120 1320,2160 1240,2240 
			1160,2320 1088,2392 1016,2320 936,2240 856,2160 816,2120 776,2160 696,2240 616,2320 544,2392 472,2320 392,2240 312,2160 
			272,2120 232,2160 152,2240 72,2320 0,2392 0,2400 80,2320 160,2240 240,2160 272,2128 304,2160 384,2240 464,2320 544,2400 
			624,2320 704,2240 784,2160 816,2128 848,2160 928,2240 1008,2320 1088,2400 1168,2320 1248,2240 1328,2160 1360,2128 1392,2160 
			1472,2240 1552,2320 1632,2400 1712,2320 1792,2240 1872,2160 1904,2128 1936,2160 2016,2240 2096,2320 2176,2400 2256,2320 
			2336,2240 2416,2160 2448,2128 2480,2160 2560,2240 2640,2320 2720,2400 2720,2392 2648,2320 		"/>
		<polygon class="st1" points="2568,2320 2488,2240 2448,2200 2408,2240 2328,2320 2248,2400 2176,2472 2104,2400 2024,2320 
			1944,2240 1904,2200 1864,2240 1784,2320 1704,2400 1632,2472 1560,2400 1480,2320 1400,2240 1360,2200 1320,2240 1240,2320 
			1160,2400 1088,2472 1016,2400 936,2320 856,2240 816,2200 776,2240 696,2320 616,2400 544,2472 472,2400 392,2320 312,2240 
			272,2200 232,2240 152,2320 72,2400 0,2472 0,2480 80,2400 160,2320 240,2240 272,2208 304,2240 384,2320 464,2400 544,2480 
			624,2400 704,2320 784,2240 816,2208 848,2240 928,2320 1008,2400 1088,2480 1168,2400 1248,2320 1328,2240 1360,2208 1392,2240 
			1472,2320 1552,2400 1632,2480 1712,2400 1792,2320 1872,2240 1904,2208 1936,2240 2016,2320 2096,2400 2176,2480 2256,2400 
			2336,2320 2416,2240 2448,2208 2480,2240 2560,2320 2640,2400 2720,2480 2720,2472 2648,2400 		"/>
		<polygon class="st1" points="2568,2400 2488,2320 2448,2280 2408,2320 2328,2400 2248,2480 2176,2552 2104,2480 2024,2400 
			1944,2320 1904,2280 1864,2320 1784,2400 1704,2480 1632,2552 1560,2480 1480,2400 1400,2320 1360,2280 1320,2320 1240,2400 
			1160,2480 1088,2552 1016,2480 936,2400 856,2320 816,2280 776,2320 696,2400 616,2480 544,2552 472,2480 392,2400 312,2320 
			272,2280 232,2320 152,2400 72,2480 0,2552 0,2560 80,2480 160,2400 240,2320 272,2288 304,2320 384,2400 464,2480 544,2560 
			624,2480 704,2400 784,2320 816,2288 848,2320 928,2400 1008,2480 1088,2560 1168,2480 1248,2400 1328,2320 1360,2288 1392,2320 
			1472,2400 1552,2480 1632,2560 1712,2480 1792,2400 1872,2320 1904,2288 1936,2320 2016,2400 2096,2480 2176,2560 2256,2480 
			2336,2400 2416,2320 2448,2288 2480,2320 2560,2400 2640,2480 2720,2560 2720,2552 2648,2480 		"/>
		<polygon class="st1" points="2568,2480 2488,2400 2448,2360 2408,2400 2328,2480 2248,2560 2176,2632 2104,2560 2024,2480 
			1944,2400 1904,2360 1864,2400 1784,2480 1704,2560 1632,2632 1560,2560 1480,2480 1400,2400 1360,2360 1320,2400 1240,2480 
			1160,2560 1088,2632 1016,2560 936,2480 856,2400 816,2360 776,2400 696,2480 616,2560 544,2632 472,2560 392,2480 312,2400 
			272,2360 232,2400 152,2480 72,2560 0,2632 0,2640 80,2560 160,2480 240,2400 272,2368 304,2400 384,2480 464,2560 544,2640 
			624,2560 704,2480 784,2400 816,2368 848,2400 928,2480 1008,2560 1088,2640 1168,2560 1248,2480 1328,2400 1360,2368 1392,2400 
			1472,2480 1552,2560 1632,2640 1712,2560 1792,2480 1872,2400 1904,2368 1936,2400 2016,2480 2096,2560 2176,2640 2256,2560 
			2336,2480 2416,2400 2448,2368 2480,2400 2560,2480 2640,2560 2720,2640 2720,2632 2648,2560 		"/>
		<polygon class="st1" points="312,2560 272,2520 232,2560 152,2640 72,2720 80,2720 160,2640 240,2560 272,2528 304,2560 384,2640 
			464,2720 472,2720 392,2640 		"/>
		<polygon class="st1" points="272,2600 232,2640 152,2720 160,2720 240,2640 272,2608 304,2640 384,2720 392,2720 312,2640 		"/>
		<polygon class="st1" points="856,2560 816,2520 776,2560 696,2640 616,2720 624,2720 704,2640 784,2560 816,2528 848,2560 
			928,2640 1008,2720 1016,2720 936,2640 		"/>
		<polygon class="st1" points="816,2600 776,2640 696,2720 704,2720 784,2640 816,2608 848,2640 928,2720 936,2720 856,2640 		"/>
		<polygon class="st1" points="1400,2560 1360,2520 1320,2560 1240,2640 1160,2720 1168,2720 1248,2640 1328,2560 1360,2528 
			1392,2560 1472,2640 1552,2720 1560,2720 1480,2640 		"/>
		<polygon class="st1" points="1360,2600 1320,2640 1240,2720 1248,2720 1328,2640 1360,2608 1392,2640 1472,2720 1480,2720 
			1400,2640 		"/>
		<polygon class="st1" points="1944,2560 1904,2520 1864,2560 1784,2640 1704,2720 1712,2720 1792,2640 1872,2560 1904,2528 
			1936,2560 2016,2640 2096,2720 2104,2720 2024,2640 		"/>
		<polygon class="st1" points="1904,2600 1864,2640 1784,2720 1792,2720 1872,2640 1904,2608 1936,2640 2016,2720 2024,2720 
			1944,2640 		"/>
		<polygon class="st1" points="2568,2560 2488,2480 2448,2440 2408,2480 2328,2560 2248,2640 2176,2712 2104,2640 2024,2560 
			1944,2480 1904,2440 1864,2480 1784,2560 1704,2640 1632,2712 1560,2640 1480,2560 1400,2480 1360,2440 1320,2480 1240,2560 
			1160,2640 1088,2712 1016,2640 936,2560 856,2480 816,2440 776,2480 696,2560 616,2640 544,2712 472,2640 392,2560 312,2480 
			272,2440 232,2480 152,2560 72,2640 0,2712 0,2720 80,2640 160,2560 240,2480 272,2448 304,2480 384,2560 464,2640 544,2720 
			624,2640 704,2560 784,2480 816,2448 848,2480 928,2560 1008,2640 1088,2720 1168,2640 1248,2560 1328,2480 1360,2448 1392,2480 
			1472,2560 1552,2640 1632,2720 1712,2640 1792,2560 1872,2480 1904,2448 1936,2480 2016,2560 2096,2640 2176,2720 2256,2640 
			2336,2560 2416,2480 2448,2448 2480,2480 2560,2560 2640,2640 2720,2720 2720,2712 2648,2640 		"/>
		<polygon class="st1" points="2488,2560 2448,2520 2408,2560 2328,2640 2248,2720 2256,2720 2336,2640 2416,2560 2448,2528 
			2480,2560 2560,2640 2640,2720 2648,2720 2568,2640 		"/>
		<polygon class="st1" points="2448,2600 2408,2640 2328,2720 2336,2720 2416,2640 2448,2608 2480,2640 2560,2720 2568,2720 
			2488,2640 		"/>
		<polygon class="st1" points="232,2720 240,2720 272,2688 304,2720 312,2720 272,2680 		"/>
		<polygon class="st1" points="776,2720 784,2720 816,2688 848,2720 856,2720 816,2680 		"/>
		<polygon class="st1" points="1320,2720 1328,2720 1360,2688 1392,2720 1400,2720 1360,2680 		"/>
		<polygon class="st1" points="1864,2720 1872,2720 1904,2688 1936,2720 1944,2720 1904,2680 		"/>
		<polygon class="st1" points="2408,2720 2416,2720 2448,2688 2480,2720 2488,2720 2448,2680 		"/>
	</g>
</g>
<g>

	<rect x="1686.8" y="2484.8" width="0" height="0"/>
	<g>
			<!--<path class="st0" d="M1812.05,2585.81l9.66,24.54l2.1,8.07h0.18l1.59-8.22l7.47-24.36h6.39l-14.1,42.93h-3.27l-11.01-27.72
			l-1.59-6.9h-0.24l-1.68,6.96l-10.59,27.63h-3.27l-14.61-42.93h7.32l8.31,24.45l1.44,8.16h0.09l2.01-8.31l9-24.27h4.8V2585.81z"/>
		<path class="st0" d="M1873.79,2585.81l9.66,24.54l2.1,8.07h0.18l1.59-8.22l7.47-24.36h6.39l-14.1,42.93h-3.27l-11.01-27.72
			l-1.59-6.9h-0.24l-1.68,6.96l-10.59,27.63h-3.27l-14.61-42.93h7.32l8.31,24.45l1.44,8.16h0.09l2.01-8.31l9-24.27h4.8V2585.81z"/>
		<path class="st0" d="M1935.53,2585.81l9.66,24.54l2.1,8.07h0.18l1.59-8.22l7.47-24.36h6.39l-14.1,42.93h-3.27l-11.01-27.72
			l-1.59-6.9h-0.24l-1.68,6.96l-10.59,27.63h-3.27l-14.61-42.93h7.32l8.31,24.45l1.44,8.16h0.09l2.01-8.31l9-24.27h4.8V2585.81z"/>
		<path class="st0" d="M1962.5,2623.94c0-1.5,0.42-2.7,1.29-3.57c0.87-0.87,2.01-1.29,3.48-1.29c1.5,0,2.73,0.42,3.6,1.29
			c0.87,0.87,1.35,2.07,1.35,3.57c0,1.47-0.45,2.64-1.35,3.54c-0.87,0.87-2.1,1.35-3.6,1.35c-1.47,0-2.61-0.45-3.48-1.35
			C1962.92,2626.58,1962.5,2625.41,1962.5,2623.94z"/>
		<path class="st0" d="M2010.02,2612.87c0-2.34-0.72-4.29-2.1-5.76c-1.38-1.47-3.15-2.82-5.25-3.96c-2.1-1.14-4.38-2.22-6.84-3.24
			c-2.49-1.02-4.74-2.22-6.84-3.66s-3.87-3.18-5.25-5.28s-2.1-4.8-2.1-8.01c0-4.59,1.59-8.22,4.8-10.92
			c3.18-2.7,7.74-4.02,13.62-4.02c3.39,0,6.51,0.24,9.33,0.75c2.82,0.51,5.01,1.14,6.54,1.92l-2.1,6.21
			c-1.29-0.63-3.18-1.23-5.67-1.8c-2.49-0.6-5.28-0.87-8.43-0.87c-3.69,0-6.48,0.84-8.31,2.49c-1.86,1.65-2.76,3.6-2.76,5.85
			c0,2.19,0.72,4.02,2.1,5.46c1.38,1.47,3.15,2.76,5.25,3.9c2.1,1.14,4.38,2.28,6.84,3.39c2.49,1.14,4.74,2.43,6.84,3.9
			c2.1,1.47,3.87,3.27,5.25,5.34c1.38,2.07,2.1,4.65,2.1,7.74c0,2.52-0.45,4.8-1.35,6.81c-0.87,2.01-2.22,3.75-3.96,5.22
			c-1.71,1.47-3.81,2.55-6.3,3.36c-2.49,0.81-5.25,1.17-8.4,1.17c-4.2,0-7.68-0.33-10.41-0.96c-2.73-0.63-4.86-1.35-6.39-2.13
			l2.34-6.21c1.29,0.72,3.18,1.38,5.7,2.1c2.52,0.66,5.34,1.02,8.49,1.02c1.86,0,3.57-0.18,5.22-0.54c1.65-0.39,3.03-0.96,4.2-1.77
			s2.1-1.86,2.82-3.06C2009.69,2616.02,2010.02,2614.55,2010.02,2612.87z"/>
		<path class="st0" d="M2054.39,2627.81v-23.94c0-2.19-0.12-4.11-0.39-5.76c-0.24-1.65-0.72-3.03-1.38-4.11
			c-0.66-1.08-1.59-1.92-2.73-2.49c-1.14-0.57-2.64-0.84-4.5-0.84c-2.64,0-5.01,0.84-7.14,2.55c-2.13,1.71-3.48,3.9-4.11,6.6v27.96
			h-6.72v-58.8h6.72v21.51h0.33c1.47-1.71,3.18-3.12,5.25-4.17s4.59-1.56,7.59-1.56c2.34,0,4.41,0.24,6.12,0.81
			c1.71,0.54,3.18,1.47,4.32,2.82c1.14,1.35,1.98,3.15,2.52,5.43c0.54,2.28,0.81,5.13,0.81,8.61v25.38H2054.39L2054.39,2627.81z"/>
		<path class="st0" d="M2072.69,2588.93c2.13-1.29,4.62-2.22,7.44-2.85c2.82-0.63,5.79-0.93,8.85-0.93c2.91,0,5.25,0.39,7.02,1.17
			c1.77,0.81,3.12,1.8,4.02,3.06c0.93,1.26,1.56,2.64,1.86,4.17c0.3,1.53,0.45,3.03,0.45,4.53c0,3.36-0.09,6.63-0.24,9.84
			c-0.18,3.18-0.24,6.21-0.24,9.06c0,2.07,0.09,4.02,0.24,5.88c0.18,1.86,0.45,3.57,0.93,5.13h-4.95l-1.77-5.88h-0.42
			c-0.51,0.81-1.14,1.56-1.89,2.31s-1.68,1.44-2.73,2.01c-1.05,0.6-2.31,1.08-3.69,1.47c-1.38,0.39-2.97,0.6-4.8,0.6
			c-1.83,0-3.45-0.3-5.01-0.84c-1.56-0.54-2.85-1.35-3.99-2.4c-1.14-1.05-2.01-2.28-2.64-3.75s-0.96-3.12-0.96-4.95
			c0-2.49,0.51-4.53,1.5-6.18c1.02-1.65,2.43-2.97,4.23-3.96c1.8-0.96,3.99-1.68,6.54-2.1c2.55-0.42,5.37-0.63,8.43-0.63
			c0.81,0,1.56,0,2.31,0s1.5,0.03,2.31,0.18c0.18-1.68,0.24-3.18,0.24-4.53c0-3.06-0.63-5.25-1.86-6.48
			c-1.23-1.23-3.48-1.86-6.72-1.86c-0.96,0-1.98,0.09-3.06,0.21c-1.08,0.18-2.22,0.33-3.36,0.6c-1.14,0.24-2.22,0.6-3.27,0.96
			c-1.05,0.39-1.92,0.81-2.73,1.26L2072.69,2588.93z M2084.63,2622.59c1.56,0,2.97-0.21,4.2-0.63c1.23-0.42,2.31-0.96,3.18-1.59
			c0.87-0.63,1.65-1.35,2.22-2.13c0.6-0.81,1.02-1.56,1.29-2.28V2609c-0.81-0.03-1.59-0.09-2.4-0.12c-0.81-0.03-1.59-0.03-2.4-0.03
			c-1.71,0-3.45,0.09-5.07,0.3c-1.65,0.21-3.12,0.54-4.38,1.08c-1.26,0.54-2.28,1.26-3.03,2.19c-0.75,0.93-1.14,2.1-1.14,3.48
			c0,1.98,0.72,3.57,2.1,4.83C2080.64,2621.96,2082.44,2622.59,2084.63,2622.59z"/>
		<path class="st0" d="M2115.02,2585.81h4.62l1.26,5.04h0.33c1.29-1.98,2.94-3.45,5.01-4.5c2.07-1.05,4.38-1.56,7.02-1.56
			c5.58,0,9.78,1.65,12.51,4.95c2.73,3.3,4.11,8.7,4.11,16.2c0,3.54-0.45,6.72-1.38,9.54c-0.93,2.82-2.22,5.22-3.9,7.17
			c-1.68,1.98-3.69,3.48-6.09,4.53c-2.4,1.05-5.04,1.59-7.95,1.59c-2.07,0-3.69-0.12-4.92-0.39c-1.23-0.24-2.52-0.66-3.9-1.29v17.46
			h-6.72L2115.02,2585.81L2115.02,2585.81z M2132,2590.67c-2.85,0-5.13,0.75-6.75,2.22c-1.62,1.47-2.82,3.75-3.48,6.75v20.82
			c1.02,0.81,2.13,1.38,3.45,1.8c1.29,0.42,2.97,0.63,5.13,0.63c3.87,0,6.93-1.44,9.21-4.32c2.28-2.91,3.39-7.14,3.39-12.72
			c0-2.31-0.21-4.38-0.6-6.27c-0.39-1.89-1.02-3.48-1.89-4.8c-0.87-1.29-1.98-2.34-3.36-3.06
			C2135.69,2591.06,2134.01,2590.67,2132,2590.67z"/>
		<path class="st0" d="M2191.13,2624.45c-1.68,1.35-3.78,2.4-6.33,3.18c-2.55,0.81-5.25,1.17-8.1,1.17c-3.18,0-5.97-0.51-8.31-1.56
			c-2.34-1.05-4.29-2.52-5.79-4.44s-2.64-4.23-3.36-6.93s-1.08-5.7-1.08-9.06c0-7.17,1.59-12.63,4.8-16.38
			c3.18-3.75,7.77-5.64,13.68-5.64c1.89,0,3.81,0.21,5.7,0.63c1.89,0.42,3.6,1.23,5.13,2.4c1.5,1.17,2.73,2.85,3.69,5.01
			c0.96,2.13,1.44,5.01,1.44,8.52c0,1.86-0.18,3.9-0.51,6.12h-26.97c0,2.49,0.24,4.65,0.75,6.54c0.51,1.92,1.29,3.54,2.34,4.83
			s2.43,2.31,4.17,3.03c1.71,0.72,3.78,1.05,6.27,1.05c1.89,0,3.81-0.33,5.7-1.02c1.89-0.66,3.33-1.47,4.29-2.34L2191.13,2624.45z
			 M2176.7,2590.67c-3.33,0-5.97,0.87-7.95,2.61s-3.18,4.71-3.57,8.91H2186c0-4.23-0.81-7.23-2.43-8.94
			C2181.95,2591.51,2179.67,2590.67,2176.7,2590.67z"/>
		<path class="st0" d="M2221.64,2616.38c0-1.68-0.51-2.97-1.5-3.96c-1.02-0.96-2.28-1.77-3.75-2.4c-1.47-0.63-3.12-1.26-4.86-1.86
			c-1.77-0.6-3.39-1.35-4.86-2.28c-1.47-0.93-2.73-2.1-3.75-3.57c-1.02-1.47-1.5-3.39-1.5-5.88c0-4.02,1.14-6.96,3.45-8.85
			c2.31-1.89,5.49-2.82,9.57-2.82c3.03,0,5.55,0.24,7.59,0.81c2.07,0.54,3.81,1.17,5.34,1.89l-1.59,5.55
			c-1.29-0.63-2.85-1.17-4.65-1.65c-1.8-0.48-3.78-0.72-5.85-0.72c-2.49,0-4.29,0.42-5.43,1.26c-1.14,0.84-1.71,2.31-1.71,4.38
			c0,1.47,0.51,2.61,1.5,3.39c1.02,0.84,2.28,1.56,3.75,2.19c1.47,0.63,3.12,1.26,4.86,1.89c1.77,0.63,3.39,1.44,4.86,2.43
			c1.47,1.02,2.73,2.28,3.75,3.81c1.02,1.56,1.5,3.57,1.5,6.09c0,1.8-0.3,3.48-0.87,5.04c-0.6,1.56-1.5,2.91-2.73,4.02
			c-1.23,1.11-2.76,2.01-4.59,2.64c-1.83,0.63-3.96,0.96-6.42,0.96c-3.18,0-5.91-0.3-8.16-0.93c-2.22-0.63-4.11-1.35-5.64-2.19
			l2.01-5.7c1.29,0.72,2.97,1.38,5.04,2.01s4.17,0.93,6.3,0.93c2.4,0,4.41-0.45,5.97-1.44
			C2220.83,2620.55,2221.64,2618.87,2221.64,2616.38z"/>
		<path class="st0" d="M2276.06,2609.75h-9.9v18.06h-6.54v-18.06h-25.86v-2.76l27.9-38.88h4.53v35.79h9.9v5.85H2276.06z
			 M2259.59,2585.57l0.84-6.9h-0.24l-2.94,5.7l-11.85,16.05l-4.02,4.11l5.88-0.66h12.36v-18.3H2259.59z"/>
		<path class="st0" d="M2284.97,2569.01h32.01v6.21h-25.02v20.07h23.34v6.21h-23.34v26.28H2285v-58.77H2284.97z"/>
		<path class="st0" d="M2328.38,2569.61c2.13-0.39,4.59-0.72,7.35-0.93c2.76-0.21,5.28-0.33,7.59-0.33c2.55,0,5.04,0.3,7.35,0.84
			c2.31,0.54,4.38,1.47,6.12,2.76c1.77,1.29,3.18,2.97,4.23,5.04c1.05,2.07,1.59,4.59,1.59,7.56c0,4.59-1.26,8.31-3.78,11.16
			c-2.52,2.85-5.7,4.74-9.57,5.7l4.02,3.12l14.61,23.28h-8.16l-16.2-25.38l-8.22-1.26v26.64h-6.96L2328.38,2569.61L2328.38,2569.61z
			 M2343.5,2574.38c-0.72,0-1.47,0-2.28,0s-1.56,0.03-2.28,0.09s-1.44,0.12-2.07,0.18c-0.63,0.03-1.17,0.12-1.56,0.24v21.66h6.54
			c3.87,0,7.05-0.96,9.57-2.85c2.52-1.89,3.78-4.86,3.78-8.91c0-3.03-1.05-5.49-3.12-7.47
			C2350.1,2575.34,2347.22,2574.38,2343.5,2574.38z"/>
		<path class="st0" d="M2378.36,2569.01h32.01v6.21h-25.02v19.23h22.92v6.21h-22.92v20.91h25.44v6.21h-32.43V2569.01
			L2378.36,2569.01z"/>
	 <path class="st0" d="M2423.39,2569.01h32.01v6.21h-25.02v19.23h22.92v6.21h-22.92v20.91h25.44v6.21h-32.43L2423.39,2569.01
			L2423.39,2569.01z"/>
		<path class="st0" d="M2465.39,2623.94c0-1.5,0.42-2.7,1.29-3.57s2.01-1.29,3.48-1.29c1.5,0,2.73,0.42,3.6,1.29
			c0.87,0.87,1.35,2.07,1.35,3.57c0,1.47-0.45,2.64-1.35,3.54c-0.87,0.87-2.1,1.35-3.6,1.35c-1.47,0-2.61-0.45-3.48-1.35
			S2465.39,2625.41,2465.39,2623.94z"/>
		<path class="st0" d="M2514.38,2625.05c-1.68,1.23-3.66,2.19-5.97,2.82s-4.71,0.96-7.23,0.96c-3.24,0-6-0.51-8.22-1.56
			s-4.08-2.52-5.49-4.44c-1.44-1.92-2.49-4.23-3.12-6.96c-0.63-2.73-0.96-5.7-0.96-9.03c0-7.11,1.56-12.57,4.71-16.35
			c3.15-3.78,7.65-5.67,13.53-5.67c2.7,0,4.95,0.21,6.84,0.63c1.89,0.42,3.57,1.02,5.07,1.8l-1.92,5.79
			c-1.29-0.72-2.73-1.29-4.29-1.71c-1.56-0.42-3.24-0.63-5.04-0.63c-7.95,0-11.94,5.37-11.94,16.14c0,2.13,0.21,4.17,0.63,6.09
			c0.42,1.92,1.14,3.66,2.1,5.13s2.28,2.7,3.87,3.57s3.57,1.35,5.91,1.35c2.01,0,3.81-0.3,5.43-0.93c1.59-0.63,2.91-1.29,3.9-2.1
			L2514.38,2625.05z"/>
		<path class="st0" d="M2519.33,2606.81c0-7.11,1.59-12.57,4.74-16.35c3.15-3.78,7.74-5.67,13.65-5.67c3.15,0,5.88,0.51,8.19,1.56
			c2.31,1.05,4.23,2.52,5.76,4.44c1.5,1.92,2.64,4.23,3.36,6.96s1.08,5.7,1.08,9.03c0,7.11-1.59,12.57-4.74,16.35
			c-3.15,3.78-7.74,5.67-13.65,5.67c-3.15,0-5.88-0.51-8.19-1.56c-2.31-1.05-4.23-2.52-5.76-4.44c-1.5-1.92-2.64-4.23-3.36-6.96
			S2519.33,2610.14,2519.33,2606.81z M2526.29,2606.81c0,2.13,0.21,4.17,0.63,6.12c0.42,1.98,1.08,3.66,1.98,5.13
			s2.07,2.64,3.54,3.54c1.47,0.87,3.24,1.35,5.28,1.35c7.59,0.03,11.43-5.34,11.43-16.14c0-2.19-0.21-4.23-0.63-6.21
			c-0.42-1.98-1.08-3.66-1.98-5.13c-0.87-1.47-2.07-2.61-3.54-3.48s-3.24-1.29-5.28-1.29
			C2530.13,2590.64,2526.29,2596.01,2526.29,2606.81z"/>
		<path class="st0" d="M2591.3,2627.81v-23.76c0-2.22-0.09-4.2-0.3-5.85c-0.21-1.65-0.6-3.03-1.14-4.17
			c-0.54-1.14-1.35-1.98-2.4-2.52c-1.05-0.54-2.4-0.84-4.08-0.84c-2.55,0-4.71,0.81-6.42,2.34c-1.71,1.59-2.91,3.54-3.57,5.88v28.89
			h-6.72v-42h4.71l1.26,5.13h0.36c1.5-1.8,3.27-3.27,5.25-4.41c1.98-1.14,4.59-1.71,7.77-1.71c2.7,0,4.86,0.51,6.6,1.56
			c1.71,1.05,3.03,2.85,3.99,5.43c1.29-2.19,3.06-3.9,5.34-5.13c2.28-1.23,4.83-1.86,7.68-1.86c2.34,0,4.32,0.24,5.97,0.81
			c1.65,0.54,2.97,1.47,4.02,2.82c1.05,1.35,1.86,3.15,2.31,5.46c0.45,2.31,0.72,5.22,0.72,8.73v25.2h-6.72v-25.29
			c0-2.01-0.09-3.78-0.3-5.25s-0.6-2.73-1.17-3.69c-0.57-0.96-1.38-1.71-2.43-2.19c-1.05-0.45-2.4-0.72-4.08-0.72
			c-2.82,0-5.01,0.81-6.54,2.34c-1.56,1.59-2.7,3.81-3.36,6.72v28.05h-6.75V2627.81z"/> -->
	</g>
</g>
<g>
</g>
<g>
</g>
<g>
</g>
<g>
</g>
<g>
</g>
<g>
</g>
<g>
</g>
<g>
</g>
<g>
</g>
<g>
</g>
<g>
</g>
<g>
</g>
<g>
</g>
<g>
</g>
<g>
</g>
</svg>
